<svg width="158" height="114" viewBox="0 0 158 114" fill="none" xmlns="http://www.w3.org/2000/svg">
<g clip-path="url(#clip0_61_394)">
<path fill-rule="evenodd" clip-rule="evenodd" d="M74.8003 71.5753C68.7251 67.7938 64.2496 54.7436 64.2496 39.2384C64.2496 38.6694 64.2542 38.1087 64.2661 37.5479L64.2735 37.5561C47.3763 34.9171 35.1677 27.6871 34.855 19.1376L34.8054 19.2361C30.671 24.3422 28.3111 30.2458 28.3111 36.5364C28.3111 55.0466 48.7573 70.2133 74.691 71.5547L74.8003 71.5753ZM20.4991 37.8869C20.4991 17.1752 46.4351 0.382324 78.431 0.382324C110.426 0.382324 136.363 17.1752 136.363 37.8869C136.363 58.5986 110.426 75.3919 78.431 75.3919C46.4351 75.3919 20.4991 58.5982 20.4991 37.8869ZM78.431 5.795C84.6076 5.795 89.8614 15.106 91.8076 28.0977L91.815 28.0781C103.831 26.2193 112.245 21.9313 112.245 16.9416C112.245 10.2445 97.1041 4.82179 78.431 4.82179C59.7566 4.82179 44.6174 10.245 44.6174 16.9416C44.6174 21.9313 53.0295 26.2193 65.0471 28.0781L65.0545 28.0977C67.0007 15.1065 72.2558 5.795 78.431 5.795ZM82.1701 71.5543C108.104 70.2133 128.553 55.0461 128.553 36.5359C128.553 30.2458 126.19 24.3422 122.056 19.2357L122.006 19.1371C121.693 27.6866 109.488 34.9166 92.5886 37.5557L92.596 37.5475C92.6074 38.1082 92.6134 38.669 92.6134 39.2379C92.6134 54.7432 88.1347 67.7933 82.0632 71.5748L82.1701 71.5543ZM78.431 29.0632C81.1982 29.0632 83.8882 28.9459 86.462 28.7205L86.4575 28.7246C85.1765 20.3964 82.0655 14.5188 78.4301 14.5188C74.7948 14.5188 71.6842 20.3964 70.4014 28.7246L70.3968 28.7205C72.9707 28.9459 75.6616 29.0632 78.4287 29.0632H78.431ZM78.431 59.904C83.081 59.904 86.8743 50.2873 87.0768 38.2255L87.1016 38.2341C84.2986 38.4919 81.3993 38.6265 78.4315 38.6265C75.4609 38.6265 72.5643 38.4919 69.7614 38.2341L69.7875 38.2255C69.9868 50.2868 73.7792 59.904 78.431 59.904Z" fill="white"/>
<path fill-rule="evenodd" clip-rule="evenodd" d="M78.6021 99.4687C78.6021 91.7846 84.824 85.5551 92.4956 85.5551C100.171 85.5551 106.392 91.7843 106.392 99.4687C106.392 107.154 100.171 113.382 92.4956 113.382C84.824 113.382 78.6021 107.154 78.6021 99.4687ZM92.4956 108.28C96.7814 108.28 100.255 104.335 100.255 99.4687C100.255 94.6028 96.7814 90.6568 92.4956 90.6568C88.2128 90.6568 84.7395 94.6028 84.7395 99.4687C84.7395 104.335 88.2128 108.28 92.4956 108.28Z" fill="white"/>
<path fill-rule="evenodd" clip-rule="evenodd" d="M122.157 112.751H116.303V91.3522H116.322H108.136V86.5144H130.323V91.3522H122.176H122.157V112.751Z" fill="white"/>
<path fill-rule="evenodd" clip-rule="evenodd" d="M137.406 106.848L137.4 106.853L135.154 112.751H128.318L139.126 86.5143H142.771H146.412L157.222 112.751H150.384L148.138 106.853L148.132 106.848H142.771H137.406ZM142.771 102.42H146.454L146.451 102.421L142.796 92.818H142.744L139.086 102.421L139.084 102.42H142.77H142.771Z" fill="white"/>
<path fill-rule="evenodd" clip-rule="evenodd" d="M14.2436 112.751H8.38929V91.3522H8.4092H0.221649V86.5144H22.4104V91.3522H14.264H14.2436V112.751Z" fill="white"/>
<path fill-rule="evenodd" clip-rule="evenodd" d="M23.9076 99.4687C23.9076 91.7846 30.1293 85.5551 37.8035 85.5551C45.4773 85.5551 51.6983 91.7843 51.6983 99.4687C51.6983 107.154 45.4773 113.382 37.8035 113.382C30.1293 113.382 23.9076 107.154 23.9076 99.4687ZM37.8035 108.28C42.0872 108.28 45.5614 104.335 45.5614 99.4687C45.5614 94.6028 42.0874 90.6568 37.8035 90.6568C33.5192 90.6568 30.045 94.6028 30.045 99.4687C30.045 104.335 33.5192 108.28 37.8035 108.28Z" fill="white"/>
<path fill-rule="evenodd" clip-rule="evenodd" d="M65.1501 112.751H68.1185V102.911V102.788L78.3314 86.5144H71.4961L65.1501 97.5421L58.8051 86.5144H51.9675L62.1815 102.788V102.911V112.751H65.1501Z" fill="white"/>
</g>
<defs>
<clipPath id="clip0_61_394">
<rect width="157" height="113" fill="white" transform="translate(0.22168 0.382324)"/>
</clipPath>
</defs>
</svg>
