<svg width="158" height="106" viewBox="0 0 158 106" fill="none" xmlns="http://www.w3.org/2000/svg">
<path d="M113.811 48.7625C113.811 48.7625 107.315 50.6426 94.7313 58.376C83.4272 65.33 79.0027 69.9951 79.0027 69.9951L44.1856 45.9349C44.1856 45.9349 58.8325 35.1546 71.0756 43.4139L87.494 54.6754L89.4998 53.3531L44.1856 21.6149C44.1856 21.6149 50.6989 19.7348 63.2826 11.9993C74.5952 5.04738 79.0027 0.380127 79.0027 0.380127L113.835 24.4425C113.835 24.4425 99.1814 35.2206 86.9383 26.9614L70.5199 15.6999L68.5226 17.0158L113.811 48.7625Z" fill="#ED192D"/>
<path d="M86.8553 81.5905H60.3464V87.4778H73.1474L59.8972 99.8549V104.795H86.8127V98.8819H73.422L86.8553 86.5388V81.5905Z" fill="white"/>
<path d="M44.735 105.385C55.3406 105.385 58.0682 102.683 58.0682 96.7101V81.5905H49.6599V95.803C49.6599 98.2005 47.6137 99.6207 44.735 99.6207C41.7583 99.6207 39.8441 98.192 39.8441 95.7711V81.5905H31.4273V96.7101C31.4273 102.683 34.157 105.385 44.735 105.385Z" fill="white"/>
<path d="M102.224 105.385C112.83 105.385 115.557 102.683 115.557 96.7101V81.5905H107.149V95.803C107.149 98.2005 105.103 99.6207 102.224 99.6207C99.2474 99.6207 97.3332 98.192 97.3332 95.7711V81.5905H88.9164V96.7101C88.9164 102.683 91.646 105.385 102.224 105.385Z" fill="white"/>
<path d="M148.709 81.5905H157.458V104.795H148.709V81.5905Z" fill="white"/>
<path d="M147.387 81.5905H135.851L126.544 89.5985V81.5905H117.77V104.795H126.544V96.5695L135.187 104.795H146.963L134.145 92.8839L147.387 81.5905Z" fill="white"/>
<path d="M10.7356 88.0016C10.7356 86.2152 13.3971 86.1471 14.2935 86.1471C15.2091 86.1471 17.2297 86.5133 18.5946 88.7681H28.4912C28.4912 84.4011 24.3584 80.9241 14.3361 80.9241C3.17472 80.9241 1.2861 85.8064 1.2861 88.6191C1.2861 93.791 5.30394 95.3134 14.0125 96.2375C14.7598 96.3205 19.2929 96.1033 19.2929 98.2836C19.2929 99.904 16.74 100.013 15.8244 100.013C14.8855 100.013 13.1459 99.855 11.6916 97.2936H0.787857C0.787857 102.382 4.2223 105.327 15.8074 105.327C26.4535 105.327 29.2811 100.977 29.2811 97.6683C29.2811 94.4574 27.0859 91.1955 17.9963 90.0329C14.2105 89.541 10.7356 89.3324 10.7356 88.0016Z" fill="white"/>
</svg>
