<svg width="122" height="103" viewBox="0 0 122 103" fill="none" xmlns="http://www.w3.org/2000/svg">
<g clip-path="url(#clip0_61_363)">
<path d="M71.0952 55.693C70.9984 55.7172 70.6111 55.7172 70.4417 55.7172H57.9511V58.6197H70.6595C70.7563 58.6197 71.5068 58.6197 71.652 58.5956C74.2421 58.3537 75.4282 56.201 75.4282 54.3143C75.4282 52.3793 74.1937 50.2991 71.8456 50.0814C71.3857 50.0331 70.9984 50.0331 70.829 50.0331H62.5262C62.1631 50.0331 61.7516 50.0089 61.6063 49.9605C60.9527 49.7912 60.7107 49.2107 60.7107 48.7269C60.7107 48.2916 60.9527 47.711 61.6305 47.5175C61.8242 47.4692 62.042 47.445 62.502 47.445H74.4841V44.5908H62.3083C61.8 44.5908 61.4127 44.615 61.098 44.6634C59.0162 44.9536 57.5638 46.6226 57.5638 48.7511C57.5638 50.4926 58.6531 52.5244 61.0496 52.863C61.4853 52.9114 62.0904 52.9114 62.3567 52.9114H70.4417C70.5869 52.9114 70.95 52.9114 71.0226 52.9356C71.9425 53.0565 72.2571 53.7338 72.2571 54.3385C72.2571 54.919 71.8941 55.5479 71.0952 55.693Z" fill="white"/>
<path d="M47.4214 55.693C47.3246 55.7172 46.9373 55.7172 46.792 55.7172H34.2773V58.6197H46.9857C47.0825 58.6197 47.8329 58.6197 47.9782 58.5956C50.5682 58.3537 51.7544 56.201 51.7544 54.3143C51.7544 52.3793 50.5198 50.2991 48.1718 50.0814C47.7119 50.0331 47.3246 50.0331 47.1551 50.0331H38.8523C38.4892 50.0331 38.0777 50.0089 37.9325 49.9605C37.2789 49.7912 37.0369 49.2107 37.0369 48.7269C37.0369 48.2916 37.2789 47.711 37.9567 47.5175C38.1503 47.4692 38.3682 47.445 38.8281 47.445H50.8103V44.5908H38.6345C38.1261 44.5908 37.7388 44.615 37.4242 44.6634C35.3424 44.9536 33.89 46.6226 33.89 48.7511C33.89 50.4926 34.9793 52.5244 37.3757 52.863C37.8115 52.9114 38.4166 52.9114 38.6829 52.9114H46.7678C46.9131 52.9114 47.2762 52.9114 47.3488 52.9356C48.2686 53.0565 48.5833 53.7338 48.5833 54.3385C48.5833 54.919 48.2444 55.5479 47.4214 55.693Z" fill="white"/>
<path d="M27.7657 44.4941H24.6189V58.6924H27.7657V44.4941Z" fill="white"/>
<path d="M17.6717 58.6924V44.4941H14.5248V55.0884L4.04345 44.4941H0.000976562V58.6924H3.14781V48.0497L13.7018 58.6924H17.6717Z" fill="white"/>
<path d="M118.879 44.4941V55.0884L108.397 44.4941H104.355V58.6924H107.502V48.0497L118.031 58.6924H122.001V44.4941H118.879Z" fill="white"/>
<path d="M87.9672 44.4941L79.1077 58.6924H82.9323L84.5057 56.1527H94.8418L96.4153 58.6924H100.216L91.3561 44.4941H87.9672ZM93.22 53.4678H86.1275L89.6859 47.7595L93.22 53.4678Z" fill="white"/>
<path d="M17.5022 36.4396C23.8443 17.9359 41.3213 5.50337 61.0254 5.50337C80.7294 5.50337 98.2307 17.9359 104.549 36.4396L104.597 36.5847H118.467V34.9157L112.706 34.2385C109.148 33.8273 108.397 32.2551 107.429 30.2717L107.187 29.7879C98.86 12.0824 80.7294 0.617432 61.0254 0.617432C41.2971 0.617432 23.1907 12.0824 14.8637 29.8363L14.6216 30.32C13.6534 32.3034 12.903 33.8756 9.34463 34.2868L3.5835 34.9641V36.6331H17.4296L17.5022 36.4396Z" fill="white"/>
<path d="M104.597 66.6259L104.549 66.771C98.2064 85.2747 80.7294 97.683 61.0253 97.683C41.3213 97.683 23.82 85.2505 17.5022 66.7468L17.4537 66.6017H3.60767V68.2706L9.3688 68.9479C12.9271 69.3591 13.6775 70.9313 14.6458 72.9147L14.8879 73.3985C23.2149 91.1523 41.3455 102.617 61.0495 102.617C80.7536 102.617 98.8842 91.1523 107.211 73.4226L107.453 72.9389C108.422 70.9555 109.172 69.3833 112.73 68.9721L118.491 68.2948V66.6259H104.597Z" fill="white"/>
</g>
<defs>
<clipPath id="clip0_61_363">
<rect width="122" height="102" fill="white" transform="translate(0 0.617432)"/>
</clipPath>
</defs>
</svg>
