<svg width="199" height="120" viewBox="0 0 199 120" fill="none" xmlns="http://www.w3.org/2000/svg">
<path d="M100.092 28.7448C151.629 28.7448 189.768 42.9511 189.472 63.0198C189.176 80.5992 151.623 97.7431 100.092 97.7431C48.5604 97.7431 8.64734 84.7017 8.64734 64.3442C8.79574 44.4167 48.5549 28.7448 100.092 28.7448Z" fill="#2360A5"/>
<path d="M99.7963 94.8056C151.333 94.8056 186.236 78.2565 186.236 62.4369C186.236 46.7584 151.044 31.5219 99.507 31.5219C55.3284 31.5219 12.1852 45.1463 11.8895 64.0436C11.7422 81.7706 48.2593 94.8056 99.7963 94.8056Z" fill="white"/>
<path d="M99.5069 92.3226C151.044 92.3226 183.587 76.2024 183.587 63.0197C183.587 48.8069 151.63 34.1587 100.099 34.1587C48.569 34.1587 14.8357 49.1011 14.8357 63.7558C14.8357 79.4277 47.9689 92.3226 99.5069 92.3226Z" fill="#2360A5"/>
<path d="M123.358 42.3692C122.471 42.3692 117.467 43.8348 110.989 43.8348C96.9983 43.8348 87.427 40.1741 76.5299 40.1741C65.4855 40.1741 57.2391 45.4469 57.2391 52.1853C57.2391 56.8762 60.7768 58.4819 63.2725 58.4819C67.8393 58.4819 73.5836 53.5033 73.5836 49.6895C73.5836 49.3953 73.2879 48.5181 72.9922 48.5181C71.6674 48.5181 69.8985 53.6498 65.3371 53.6498C63.1306 53.6498 62.2435 51.5959 62.2435 50.7133C62.2435 48.0763 65.479 42.6623 75.6428 42.6623C80.0558 42.6623 84.9183 43.5449 89.7754 44.5697C85.2086 45.8877 80.9375 51.1616 76.3761 57.0163C72.5491 57.4582 69.1652 58.0465 67.6855 59.7998C66.3608 61.2654 67.2479 62.2892 67.9812 61.5596C69.1587 60.2417 71.8082 59.6522 74.7546 59.2115C68.863 66.9801 62.9768 74.7422 56.2035 74.7422C52.5173 74.7422 51.0507 72.0999 51.0507 70.199C51.0507 66.8324 54.2927 64.1966 56.2035 63.1717C57.381 62.7299 57.5283 61.412 55.3164 61.412C50.4592 61.412 46.3365 66.8324 46.3365 71.0815C46.3365 76.9428 50.6011 80.8977 56.3519 80.8977C66.5092 80.8977 72.9932 68.8864 79.4708 58.7815C82.7064 58.4873 85.9484 58.1931 88.599 57.6101C89.4862 58.928 90.8055 59.5175 91.2497 59.5175C91.6938 59.5175 91.8411 59.0821 91.8411 58.7879C91.8411 58.6403 90.812 58.3526 90.0722 57.1758C92.4271 56.4398 93.8992 55.2684 93.8992 53.2145C93.8992 52.0495 93.0121 50.5775 91.2486 50.5775C88.8937 50.5775 87.7173 52.625 87.7173 54.68C87.7173 55.1154 87.8657 55.5626 87.8657 55.998C85.9484 56.2922 83.4462 56.4398 80.7967 56.734C84.0387 51.7553 87.2743 47.6528 90.9604 46.0407L90.5163 44.7227C98.6144 46.6301 106.565 49.1195 112.168 49.1195C119.378 49.1195 124.833 45.9006 124.833 43.5578C124.831 43.0988 124.098 42.3692 123.358 42.3692ZM89.4916 54.6746C89.4916 53.5033 90.083 52.0377 91.4089 52.0377C92.0003 52.0377 92.438 52.7672 92.438 53.0614C92.438 54.2328 91.2605 55.1089 89.4916 55.5508V54.6746Z" fill="white"/>
<path d="M98.6187 80.3049C101.565 75.6205 106.865 67.2689 106.865 65.6567C106.865 64.9207 106.421 64.4853 105.688 64.4853C103.77 64.4853 99.3585 69.0286 97.1455 72.3951C93.4659 78.1098 90.0819 80.8933 86.2485 80.8933C82.1247 80.8933 79.9193 78.2564 79.3267 75.4728C78.2977 76.6442 76.9718 77.9622 75.7955 78.6917C75.0557 79.1335 73.7309 77.2326 74.618 76.4966C76.5353 75.0375 77.8536 73.2777 79.0375 71.2238C81.3924 66.6805 85.071 61.4076 90.3776 61.4076C92.1465 61.4076 92.8799 63.1674 91.2594 63.7558C85.8108 65.5091 83.7527 70.3476 83.7527 73.4254C83.7527 75.6205 84.9302 76.7919 86.6991 76.7919C91.8519 76.7919 96.123 69.4705 93.9165 64.0511C93.4724 62.7331 95.9746 60.9734 96.7144 61.9971C97.8919 63.1685 98.3349 66.0996 98.0392 67.4176C100.394 65.0748 103.931 60.5315 107.61 60.5315C109.379 60.5315 110.704 61.8495 110.704 63.1685C110.852 63.898 110.852 64.9282 110.556 65.5112C112.473 62.8743 114.827 60.8268 117.182 60.8268C119.24 60.8268 120.861 62.2924 120.861 64.1933C120.861 65.9531 119.388 67.8605 117.626 67.8605C116.005 67.8605 114.828 66.5425 115.271 64.9293C115.271 64.7817 115.271 64.4875 114.827 64.4875C114.235 64.4875 112.769 66.9768 112.769 68.7366C112.769 70.3487 114.242 71.2259 115.419 71.2259C120.572 71.2259 126.168 61.2622 133.09 61.2622C135.148 61.2622 137.509 61.9917 138.243 65.2171C140.893 60.968 144.134 56.1359 146.637 52.0344H151.79C146.046 61.6975 136.918 74.5924 136.918 76.1992C136.918 77.0817 137.805 77.6647 138.391 77.6647C139.864 77.6647 143.987 74.4459 147.377 70.6375C148.111 69.7549 149.435 71.0729 148.998 71.5147C143.698 77.9589 140.16 81.0366 136.184 81.0366C133.978 81.0366 132.8 79.1292 132.357 77.2294C130.44 78.9827 127.791 80.7425 125.288 80.7425C122.49 80.7425 120.136 78.6885 120.136 74.7401C120.136 73.8575 120.277 72.6861 120.573 71.8035C118.515 73.1215 116.154 74.2928 114.54 74.2928C111.742 74.2928 110.564 72.2453 110.564 69.3142L103.495 80.3017H98.6198L98.6187 80.3049ZM133.373 64.3442C129.687 64.3442 124.831 70.2 124.831 74.4491C124.831 75.6205 126.009 77.0861 127.038 77.0861C129.836 77.0861 134.693 68.8821 134.693 68.8821C134.989 68.2937 135.426 67.1223 135.426 66.2451C135.393 65.1621 134.484 64.3108 133.395 64.3431C133.388 64.3442 133.381 64.3442 133.373 64.3442Z" fill="white"/>
</svg>
