<svg width="42" height="41" viewBox="0 0 42 41" fill="none" xmlns="http://www.w3.org/2000/svg">
<path d="M36.0746 9.65413C35.9654 9.65413 35.8563 9.61288 35.7729 9.53038L31.971 5.78608C31.8018 5.61936 31.8 5.34694 31.9659 5.17764C32.1326 5.00835 32.4068 5.00749 32.5735 5.17335L36.3753 8.91764C36.5446 9.08436 36.5464 9.35678 36.3805 9.52608C36.2971 9.61116 36.1854 9.65413 36.0746 9.65413Z" fill="white"/>
<path d="M38.1259 14.5524C37.8887 14.5524 37.6962 14.3599 37.6962 14.1227C37.6962 12.4074 36.9958 10.7334 35.7738 9.53109C35.6045 9.36437 35.6028 9.09281 35.7686 8.92352C35.9345 8.75336 36.2069 8.7525 36.3762 8.91836C37.7607 10.2813 38.5556 12.1788 38.5556 14.1227C38.5556 14.3599 38.3631 14.5524 38.1259 14.5524Z" fill="white"/>
<path d="M38.126 29.523C37.8888 29.523 37.6963 29.3305 37.6963 29.0934V14.123C37.6963 13.8859 37.8888 13.6934 38.126 13.6934C38.3632 13.6934 38.5557 13.8859 38.5557 14.123V29.0934C38.5557 29.3305 38.3632 29.523 38.126 29.523Z" fill="white"/>
<path d="M32.9697 18.1147C32.7325 18.1147 32.54 17.9222 32.54 17.6851C32.54 16.5008 31.5767 15.5366 30.3916 15.5366C30.1544 15.5366 29.9619 15.3441 29.9619 15.1069C29.9619 14.8697 30.1544 14.6772 30.3916 14.6772C32.0502 14.6772 33.3994 16.0265 33.3994 17.6851C33.3994 17.9222 33.2069 18.1147 32.9697 18.1147Z" fill="white"/>
<path d="M32.9697 29.523C32.7325 29.523 32.54 29.3305 32.54 29.0933V17.6851C32.54 17.4479 32.7325 17.2554 32.9697 17.2554C33.2069 17.2554 33.3994 17.4479 33.3994 17.6851V29.0933C33.3994 29.3305 33.2069 29.523 32.9697 29.523Z" fill="white"/>
<path d="M30.3916 15.5366H27.8135C27.5763 15.5366 27.3838 15.3441 27.3838 15.1069C27.3838 14.8697 27.5763 14.6772 27.8135 14.6772H30.3916C30.6288 14.6772 30.8213 14.8697 30.8213 15.1069C30.8213 15.3441 30.6288 15.5366 30.3916 15.5366Z" fill="white"/>
<path d="M35.5479 32.0169C34.7701 32.0169 34.0405 31.7582 33.4948 31.289C32.8709 30.7519 32.54 29.9922 32.54 29.0933C32.54 28.8561 32.7325 28.6636 32.9697 28.6636C33.2069 28.6636 33.3994 28.8561 33.3994 29.0933C33.3994 30.5112 34.5132 31.1575 35.5479 31.1575C36.5825 31.1575 37.6963 30.5112 37.6963 29.0933C37.6963 28.8561 37.8888 28.6636 38.126 28.6636C38.3632 28.6636 38.5557 28.8561 38.5557 29.0933C38.5557 31.0122 37.0423 32.0169 35.5479 32.0169Z" fill="white"/>
<path d="M24.376 15.5366C24.1388 15.5366 23.9463 15.3441 23.9463 15.1069V4.79443C23.9463 4.55725 24.1388 4.36475 24.376 4.36475C24.6132 4.36475 24.8057 4.55725 24.8057 4.79443V15.1069C24.8057 15.3441 24.6132 15.5366 24.376 15.5366Z" fill="white"/>
<path d="M24.376 15.5366H8.90723C8.67004 15.5366 8.47754 15.3441 8.47754 15.1069C8.47754 14.8697 8.67004 14.6772 8.90723 14.6772H24.376C24.6132 14.6772 24.8057 14.8697 24.8057 15.1069C24.8057 15.3441 24.6132 15.5366 24.376 15.5366Z" fill="white"/>
<path d="M8.90723 15.5366C8.67004 15.5366 8.47754 15.3441 8.47754 15.1069V4.79443C8.47754 4.55725 8.67004 4.36475 8.90723 4.36475C9.14441 4.36475 9.33691 4.55725 9.33691 4.79443V15.1069C9.33691 15.3441 9.14441 15.5366 8.90723 15.5366Z" fill="white"/>
<path d="M24.376 5.22412H8.90723C8.67004 5.22412 8.47754 5.03162 8.47754 4.79443C8.47754 4.55725 8.67004 4.36475 8.90723 4.36475H24.376C24.6132 4.36475 24.8057 4.55725 24.8057 4.79443C24.8057 5.03162 24.6132 5.22412 24.376 5.22412Z" fill="white"/>
<path d="M27.8135 5.22412C27.5763 5.22412 27.3838 5.03162 27.3838 4.79443C27.3838 3.13584 26.0346 1.78662 24.376 1.78662C24.1388 1.78662 23.9463 1.59412 23.9463 1.35693C23.9463 1.11975 24.1388 0.927246 24.376 0.927246C26.5081 0.927246 28.2432 2.66232 28.2432 4.79443C28.2432 5.03162 28.0507 5.22412 27.8135 5.22412Z" fill="white"/>
<path d="M27.8135 36.1616C27.5763 36.1616 27.3838 35.9691 27.3838 35.7319V4.79443C27.3838 4.55725 27.5763 4.36475 27.8135 4.36475C28.0507 4.36475 28.2432 4.55725 28.2432 4.79443V35.7319C28.2432 35.9691 28.0507 36.1616 27.8135 36.1616Z" fill="white"/>
<path d="M24.376 1.78662H8.90723C8.67004 1.78662 8.47754 1.59412 8.47754 1.35693C8.47754 1.11975 8.67004 0.927246 8.90723 0.927246H24.376C24.6132 0.927246 24.8057 1.11975 24.8057 1.35693C24.8057 1.59412 24.6132 1.78662 24.376 1.78662Z" fill="white"/>
<path d="M5.46973 5.22412C5.23254 5.22412 5.04004 5.03162 5.04004 4.79443C5.04004 2.66232 6.77512 0.927246 8.90723 0.927246C9.14441 0.927246 9.33691 1.11975 9.33691 1.35693C9.33691 1.59412 9.14441 1.78662 8.90723 1.78662C7.24863 1.78662 5.89941 3.13584 5.89941 4.79443C5.89941 5.03162 5.70691 5.22412 5.46973 5.22412Z" fill="white"/>
<path d="M5.46973 36.1616C5.23254 36.1616 5.04004 35.9691 5.04004 35.7319V4.79443C5.04004 4.55725 5.23254 4.36475 5.46973 4.36475C5.70691 4.36475 5.89941 4.55725 5.89941 4.79443V35.7319C5.89941 35.9691 5.70691 36.1616 5.46973 36.1616Z" fill="white"/>
<path d="M30.3916 39.5991H2.8916C2.65441 39.5991 2.46191 39.4066 2.46191 39.1694C2.46191 38.9322 2.65441 38.7397 2.8916 38.7397H30.3916C30.6288 38.7397 30.8213 38.9322 30.8213 39.1694C30.8213 39.4066 30.6288 39.5991 30.3916 39.5991Z" fill="white"/>
<path d="M30.3916 36.1616H2.8916C2.65441 36.1616 2.46191 35.9691 2.46191 35.7319C2.46191 35.4947 2.65441 35.3022 2.8916 35.3022H30.3916C30.6288 35.3022 30.8213 35.4947 30.8213 35.7319C30.8213 35.9691 30.6288 36.1616 30.3916 36.1616Z" fill="white"/>
<path d="M2.8916 39.5991C2.65441 39.5991 2.46191 39.4066 2.46191 39.1694V35.7319C2.46191 35.4947 2.65441 35.3022 2.8916 35.3022C3.12879 35.3022 3.32129 35.4947 3.32129 35.7319V39.1694C3.32129 39.4066 3.12879 39.5991 2.8916 39.5991Z" fill="white"/>
<path d="M30.3916 39.5991C30.1544 39.5991 29.9619 39.4066 29.9619 39.1694V35.7319C29.9619 35.4947 30.1544 35.3022 30.3916 35.3022C30.6288 35.3022 30.8213 35.4947 30.8213 35.7319V39.1694C30.8213 39.4066 30.6288 39.5991 30.3916 39.5991Z" fill="white"/>
<path d="M20.6651 30.2955C20.5963 30.2955 20.5276 30.2792 20.4631 30.2448C20.2543 30.1331 20.1744 29.8727 20.2861 29.6639L20.7588 28.7761C20.947 28.3456 21.0638 27.8583 21.0939 27.3564C21.1962 25.4744 20.1598 23.546 17.9245 21.4628C17.7509 21.3013 17.7415 21.0297 17.9031 20.8553C18.0646 20.6808 18.337 20.6722 18.5106 20.8338C20.9444 23.1017 22.0702 25.251 21.9524 27.4046C21.9172 28.0104 21.7763 28.5974 21.5331 29.1508L21.0466 30.0669C20.9667 30.213 20.818 30.2955 20.6651 30.2955Z" fill="white"/>
<path d="M18.2159 21.5779C18.1136 21.5779 18.0105 21.5418 17.928 21.467C16.95 20.5845 15.8474 19.86 14.6503 19.3152C14.4346 19.2172 14.3392 18.962 14.4372 18.7463C14.536 18.5306 14.7913 18.4352 15.0061 18.5331C16.284 19.1149 17.4605 19.8875 18.5038 20.8294C18.6799 20.9884 18.6945 21.2599 18.5347 21.4361C18.4496 21.5306 18.3336 21.5779 18.2159 21.5779Z" fill="white"/>
<path d="M12.6171 30.2955C12.4633 30.2955 12.3146 30.213 12.2381 30.0678L11.7654 29.1801C11.1905 27.8377 11.1751 26.3897 11.7079 25.068C12.0104 24.2455 12.5397 23.5417 13.0519 22.8602C13.6793 22.0266 14.2722 21.2394 14.4347 20.2718C14.5 19.8559 14.4905 19.4287 14.4063 19.0085C14.359 18.7756 14.5103 18.5496 14.7432 18.5023C14.9701 18.4568 15.2021 18.6055 15.2493 18.8392C15.3542 19.3591 15.3654 19.8877 15.2837 20.4102C15.0852 21.5901 14.4011 22.4984 13.7386 23.3776C13.2418 24.0376 12.7726 24.6615 12.5097 25.3765C12.0593 26.4971 12.0714 27.7114 12.5397 28.8097L12.9961 29.6648C13.1078 29.8744 13.0279 30.134 12.819 30.2457C12.7554 30.2801 12.6858 30.2955 12.6171 30.2955Z" fill="white"/>
<path d="M17.5731 32.3444C17.3686 32.3444 17.1872 32.1975 17.1511 31.9886C17.1099 31.7549 17.2663 31.5323 17.5 31.491C18.6482 31.29 19.67 30.6128 20.3042 29.6322C20.4339 29.432 20.7003 29.3778 20.898 29.505C21.0965 29.6339 21.1541 29.8995 21.0252 30.0989C20.2621 31.2788 19.0314 32.0943 17.647 32.3375C17.6238 32.3427 17.598 32.3444 17.5731 32.3444Z" fill="white"/>
<path d="M15.71 32.344C15.6851 32.344 15.6593 32.3423 15.6353 32.338C14.2517 32.0948 13.0193 31.2793 12.2562 30.0994C12.1282 29.9 12.1849 29.6336 12.3834 29.5055C12.581 29.3783 12.8483 29.4325 12.9772 29.6327C13.6106 30.6124 14.6332 31.2896 15.7822 31.4915C16.016 31.5328 16.1724 31.7554 16.1311 31.9891C16.0959 32.1971 15.9146 32.344 15.71 32.344Z" fill="white"/>
<path d="M17.5739 32.3444C17.4571 32.3444 17.341 32.2971 17.256 32.2035C17.0961 32.0281 17.109 31.7557 17.2852 31.5959C17.6771 31.2392 17.9521 30.7786 18.0818 30.263L18.2073 29.4595C18.1901 27.947 17.3539 26.3348 16.0709 25.4213L15.8698 25.2803C15.6747 25.1445 15.6275 24.8764 15.7632 24.6822C15.8999 24.4863 16.1697 24.4407 16.3614 24.5765L16.5659 24.72C18.093 25.8063 19.0486 27.6462 19.0615 29.5239L18.924 30.4349C18.7453 31.1524 18.3817 31.7609 17.8635 32.2327C17.7802 32.3074 17.6771 32.3444 17.5739 32.3444Z" fill="white"/>
<path d="M15.7091 32.3445C15.612 32.3445 15.5141 32.3118 15.4341 32.2448C14.3341 31.3252 13.938 29.7363 14.4725 28.3784C14.6298 27.9694 14.8661 27.6248 15.0955 27.2905C15.2227 27.104 15.3516 26.9184 15.4625 26.7216C15.759 26.1939 15.7409 25.637 15.6877 24.9633C15.6687 24.727 15.8449 24.519 16.0812 24.5001C16.3141 24.4838 16.5255 24.6574 16.5436 24.8937C16.6046 25.6585 16.6261 26.4053 16.211 27.1427C16.0881 27.3618 15.9463 27.5698 15.8037 27.7769C15.594 28.0828 15.3946 28.3724 15.2734 28.6895C14.8712 29.7105 15.1652 30.899 15.985 31.5848C16.1672 31.7369 16.1912 32.0076 16.0391 32.1898C15.9541 32.292 15.832 32.3445 15.7091 32.3445Z" fill="white"/>
</svg>
