<svg width="81" height="81" viewBox="0 0 81 81" fill="none" xmlns="http://www.w3.org/2000/svg">
<path fill-rule="evenodd" clip-rule="evenodd" d="M29.4132 21.9705C25.2913 21.9705 21.9382 25.3237 21.9382 29.4455V29.8284L28.3226 36.2127C30.1601 38.0502 31.0913 40.2987 31.0913 42.8971V63.5268H42.9101V42.8971C42.9101 40.2987 43.8413 38.0502 45.6788 36.2127L52.0632 29.8284V29.4455C52.0632 25.3237 48.7101 21.9705 44.5882 21.9705H29.4132ZM13.1976 21.4096L15.4413 20.233L13.1976 19.0565C13.0288 18.9674 12.8913 18.8299 12.8022 18.6612L11.6257 16.419L10.4491 18.6612C10.3601 18.8299 10.2226 18.9674 10.0538 19.0565L7.81006 20.233L10.0538 21.4096C10.2226 21.4987 10.3601 21.6362 10.4491 21.8049L11.6257 24.0487L12.8022 21.8049C12.8913 21.6362 13.0288 21.4987 13.1976 21.4096ZM68.6132 68.0752L66.7038 64.4393L64.796 68.0752C64.7069 68.244 64.5694 68.3815 64.4022 68.469L60.7663 70.3768L64.4022 72.2846C64.5694 72.3737 64.7069 72.5112 64.796 72.6784L66.7038 76.3143L68.6132 72.6784C68.7022 72.5112 68.8366 72.3737 69.0085 72.2846L72.6382 70.3768L69.0085 68.469C68.8366 68.3815 68.7022 68.244 68.6132 68.0752ZM65.1413 14.4455L66.871 17.7346L68.5929 14.4455C68.6819 14.2768 68.8226 14.1393 68.9882 14.0502L72.2804 12.3237L68.9882 10.5971C68.8226 10.508 68.6819 10.3705 68.5929 10.2034L66.871 6.91273L65.1413 10.2034C65.0538 10.3705 64.9163 10.508 64.7476 10.5971L61.4569 12.3237L64.7476 14.0502C64.9163 14.1393 65.0538 14.2768 65.1413 14.4455ZM68.3319 48.194L66.7741 50.8971C65.8257 52.5393 65.6897 54.9846 66.3679 57.1471L62.2632 54.7784L65.5413 49.1002C65.8007 48.6518 65.6476 48.0784 65.1991 47.819C64.7491 47.5596 64.1772 47.7143 63.9179 48.1627L60.6397 53.8409L58.421 52.5596L59.8616 50.0659C60.1194 49.6174 59.9663 49.044 59.5179 48.7862C59.0694 48.5268 58.496 48.6799 58.2366 49.1284L56.7976 51.6221L54.5788 50.3409L56.6241 46.8002C56.8819 46.3518 56.7288 45.7784 56.2804 45.519C55.8319 45.2612 55.2585 45.4143 54.9991 45.8627L52.9554 49.4034L48.8507 47.0346C51.0616 46.5409 53.1132 45.1987 54.0601 43.5565L55.621 40.8534L68.3319 48.194ZM64.1757 38.1924L66.3632 39.4549L72.0382 29.6237C72.2038 29.333 72.2491 28.994 72.1601 28.6659C72.0772 28.3393 71.8663 28.0659 71.5726 27.8987C71.2851 27.7315 70.9476 27.6877 70.6226 27.7752C70.2913 27.8627 70.0226 28.0705 69.8507 28.3612L64.1757 38.1924ZM56.5585 39.2299L69.2694 46.569L70.3022 44.7893C70.5132 44.419 70.3851 43.9424 70.0147 43.7284L58.646 37.1659C58.4679 37.0627 58.2585 37.0346 58.0569 37.0893C57.8554 37.144 57.6882 37.2705 57.5851 37.4487L56.5585 39.2299ZM49.9382 72.3721C53.9835 72.3721 57.8929 69.4299 59.2601 65.5752C60.0194 66.269 60.5991 67.1612 60.9163 68.1815L58.3132 69.5471C58.0054 69.7096 57.8116 70.0284 57.8116 70.3768C57.8116 70.7252 58.0054 71.0455 58.3132 71.208L60.6882 72.4534C60.6569 72.5205 60.6241 72.5893 60.5882 72.658C59.0991 75.5799 56.146 77.394 52.8835 77.394H21.1179C17.8554 77.394 14.9022 75.5799 13.4116 72.658C13.0007 71.8502 12.8179 71.0877 12.8179 70.1815V69.9268C12.8179 68.2049 13.5601 66.6549 14.7413 65.5768C16.1085 69.4299 20.0179 72.3721 24.0632 72.3721H49.9382ZM49.7038 65.4018H24.2976C23.2538 65.4018 22.3351 65.1768 21.4085 64.6955C20.5679 64.258 19.6601 64.0362 18.7101 64.0362C17.8772 64.0362 17.0866 64.2096 16.3679 64.5221C17.3179 67.8737 20.6319 70.4971 24.0632 70.4971H49.9382C53.3694 70.4971 56.6819 67.8737 57.6335 64.5221C56.9116 64.2096 56.1194 64.0362 55.2913 64.0362C54.3413 64.0362 53.4335 64.258 52.5929 64.6955C51.6663 65.1768 50.7476 65.4018 49.7038 65.4018ZM29.2163 63.5268H24.2976C23.5569 63.5268 22.9319 63.3737 22.2741 63.0315C21.1788 62.4612 19.946 62.1612 18.7101 62.1612C18.2397 62.1612 17.7804 62.2049 17.3335 62.2846V50.0627C17.3335 47.083 18.521 44.2909 20.6804 42.2002C21.5022 41.4049 21.9382 40.3784 21.9382 39.233V32.4799L26.996 37.5393C28.4694 39.0112 29.2163 40.8143 29.2163 42.8971V63.5268ZM52.0632 32.4799V39.233C52.0632 40.1799 52.3616 41.044 52.9288 41.7659L52.4366 42.619C51.6351 44.008 49.6038 45.1502 47.6054 45.3377C46.9538 45.3987 46.421 45.8705 46.2804 46.5096C46.1413 47.1502 46.4288 47.8002 46.996 48.1284L56.6679 53.7127V62.283C56.2194 62.2034 55.7601 62.1612 55.2913 62.1612C54.0554 62.1612 52.8226 62.4612 51.7272 63.0315C51.0694 63.3737 50.4444 63.5268 49.7038 63.5268H44.7851V42.8971C44.7851 40.8143 45.5319 39.0112 47.0038 37.5393L52.0632 32.4799ZM44.7976 5.83148V20.0955H47.146C48.6101 20.0955 49.8022 18.9049 49.8022 17.4393V8.48929C49.8022 7.02523 48.6101 5.83304 47.146 5.83304H44.7976V5.83148ZM29.2038 20.0955V5.83148H26.8538C25.3897 5.83148 24.1991 7.02367 24.1991 8.48773V17.4393C24.1991 18.9049 25.3897 20.0955 26.8538 20.0955H29.2038ZM31.0788 20.0955H42.9226V5.83148H31.0788V20.0955Z" fill="white"/>
</svg>
