<svg width="22" height="37" viewBox="0 0 22 37" fill="none" xmlns="http://www.w3.org/2000/svg">
<path d="M18.4219 5.96869H19.5366C20.5622 5.96869 21.3179 5.30838 21.3179 4.37244C21.3179 3.4365 20.561 2.77588 19.5366 2.77588H17.4116V7.50432H18.4229L18.4219 5.96869ZM18.4219 3.70494H19.4266C19.9288 3.70494 20.2732 3.9665 20.2732 4.37244C20.2732 4.77838 19.9294 5.03994 19.4266 5.03994H18.4219V3.70494Z" fill="white"/>
<path d="M18.4219 14.875H19.1719L20.2522 16.4097H21.4085L20.2457 14.7581C20.5588 14.6588 20.832 14.4619 21.0251 14.1961C21.2183 13.9304 21.3213 13.6098 21.3191 13.2813C21.3191 12.3456 20.5622 11.6847 19.5378 11.6847H17.4128V16.4106H18.4241L18.4219 14.875ZM18.4219 12.6113H19.4266C19.9288 12.6113 20.2732 12.8728 20.2732 13.2788C20.2732 13.6847 19.9294 13.9463 19.4266 13.9463H18.4219V12.6113Z" fill="white"/>
<path d="M18.4219 22.2615L20.6994 25.3169H21.7178V20.5894H20.6994V23.6447L18.4219 20.5894H17.4106V25.3169H18.4219V22.2615Z" fill="white"/>
<path d="M19.1025 29.4956H17.4106V34.2231H19.1025C20.6919 34.2231 21.8213 33.239 21.8213 31.8559C21.8213 30.4728 20.6928 29.4956 19.1025 29.4956ZM19.2331 33.3009H18.4206V30.4181H19.2331C19.4306 30.4048 19.6287 30.4322 19.8152 30.4986C20.0016 30.565 20.1724 30.669 20.317 30.8041C20.4616 30.9393 20.5769 31.1027 20.6557 31.2842C20.7345 31.4658 20.7751 31.6616 20.7751 31.8595C20.7751 32.0574 20.7345 32.2532 20.6557 32.4348C20.5769 32.6163 20.4616 32.7798 20.317 32.9149C20.1724 33.0501 20.0016 33.1541 19.8152 33.2205C19.6287 33.2869 19.4306 33.3142 19.2331 33.3009Z" fill="white"/>
<path d="M15.3632 4.59375H14.0088C13.8637 4.59375 13.7246 4.65137 13.6221 4.75393C13.5195 4.85649 13.4619 4.99558 13.4619 5.14062C13.4619 5.28567 13.5195 5.42476 13.6221 5.52732C13.7246 5.62988 13.8637 5.6875 14.0088 5.6875H15.3635C15.5085 5.6875 15.6476 5.62988 15.7502 5.52732C15.8527 5.42476 15.9104 5.28567 15.9104 5.14062C15.9104 4.99558 15.8527 4.85649 15.7502 4.75393C15.6476 4.65137 15.5082 4.59375 15.3632 4.59375Z" fill="white"/>
<path d="M15.3632 13.5H14.0088C13.8637 13.5 13.7246 13.5576 13.6221 13.6602C13.5195 13.7627 13.4619 13.9018 13.4619 14.0469C13.4619 14.1919 13.5195 14.331 13.6221 14.4336C13.7246 14.5361 13.8637 14.5938 14.0088 14.5938H15.3635C15.5085 14.5938 15.6476 14.5361 15.7502 14.4336C15.8527 14.331 15.9104 14.1919 15.9104 14.0469C15.9104 13.9018 15.8527 13.7627 15.7502 13.6602C15.6476 13.5576 15.5082 13.5 15.3632 13.5Z" fill="white"/>
<path d="M15.3632 22.4062H14.0088C13.8637 22.4063 13.7246 22.4639 13.6221 22.5664C13.5195 22.669 13.4619 22.8081 13.4619 22.9531C13.4619 23.0982 13.5195 23.2373 13.6221 23.3398C13.7246 23.4424 13.8637 23.5 14.0088 23.5H15.3635C15.5085 23.5 15.6476 23.4424 15.7502 23.3398C15.8527 23.2373 15.9104 23.0982 15.9104 22.9531C15.9104 22.8081 15.8527 22.669 15.7502 22.5664C15.6476 22.4639 15.5082 22.4063 15.3632 22.4062Z" fill="white"/>
<path d="M15.3632 31.3125H14.0088C13.8637 31.3125 13.7246 31.3701 13.6221 31.4727C13.5195 31.5752 13.4619 31.7143 13.4619 31.8594C13.4619 32.0044 13.5195 32.1435 13.6221 32.2461C13.7246 32.3486 13.8637 32.4062 14.0088 32.4062H15.3635C15.5085 32.4062 15.6476 32.3486 15.7502 32.2461C15.8527 32.1435 15.9104 32.0044 15.9104 31.8594C15.9104 31.7143 15.8527 31.5752 15.7502 31.4727C15.6476 31.3701 15.5082 31.3125 15.3632 31.3125Z" fill="white"/>
<path d="M10.3329 20.1794H9.60254V0.6875C9.60258 0.615672 9.58846 0.54454 9.561 0.478172C9.53353 0.411803 9.49325 0.3515 9.44246 0.300709C9.39167 0.249919 9.33136 0.209638 9.26499 0.18217C9.19863 0.154701 9.12749 0.140584 9.05567 0.140625H3.41098C3.33915 0.140584 3.26802 0.154701 3.20165 0.18217C3.13528 0.209638 3.07498 0.249919 3.02419 0.300709C2.9734 0.3515 2.93312 0.411803 2.90565 0.478172C2.87818 0.54454 2.86406 0.615672 2.8641 0.6875V20.1794H2.13379C1.74026 20.1799 1.36299 20.3364 1.08473 20.6147C0.806458 20.893 0.64991 21.2702 0.649414 21.6637V24.2425C0.64991 24.636 0.806458 25.0133 1.08473 25.2916C1.36299 25.5698 1.74026 25.7264 2.13379 25.7269H2.8641V36.3125C2.86406 36.3843 2.87818 36.4555 2.90565 36.5218C2.93312 36.5882 2.9734 36.6485 3.02419 36.6993C3.07498 36.7501 3.13528 36.7904 3.20165 36.8178C3.26802 36.8453 3.33915 36.8594 3.41098 36.8594H9.05567C9.12749 36.8594 9.19863 36.8453 9.26499 36.8178C9.33136 36.7904 9.39167 36.7501 9.44246 36.6993C9.49325 36.6485 9.53353 36.5882 9.561 36.5218C9.58846 36.4555 9.60258 36.3843 9.60254 36.3125V25.7269H10.3329C10.7264 25.7264 11.1036 25.5698 11.3819 25.2916C11.6602 25.0133 11.8167 24.636 11.8172 24.2425V21.6637C11.8167 21.2702 11.6602 20.893 11.3819 20.6147C11.1036 20.3364 10.7264 20.1799 10.3329 20.1794ZM3.95785 1.23438H8.50879V20.1794H6.78004V5.14062C6.78004 4.99558 6.72242 4.85649 6.61986 4.75393C6.5173 4.65137 6.37821 4.59375 6.23316 4.59375C6.08812 4.59375 5.94902 4.65137 5.84647 4.75393C5.74391 4.85649 5.68629 4.99558 5.68629 5.14062V20.1794H3.95785V1.23438ZM8.50879 35.7656H3.95785V25.7269H5.68629V31.8597C5.68629 32.0047 5.74391 32.1438 5.84647 32.2464C5.94902 32.3489 6.08812 32.4066 6.23316 32.4066C6.37821 32.4066 6.5173 32.3489 6.61986 32.2464C6.72242 32.1438 6.78004 32.0047 6.78004 31.8597V25.7269H8.50879V35.7656ZM10.7235 24.2425C10.7234 24.3461 10.6822 24.4454 10.609 24.5186C10.5357 24.5919 10.4364 24.633 10.3329 24.6331H2.13379C2.03021 24.633 1.93091 24.5919 1.85767 24.5186C1.78443 24.4454 1.74325 24.3461 1.74316 24.2425V21.6637C1.74325 21.5602 1.78443 21.4609 1.85767 21.3876C1.93091 21.3144 2.03021 21.2732 2.13379 21.2731H10.3329C10.4364 21.2732 10.5357 21.3144 10.609 21.3876C10.6822 21.4609 10.7234 21.5602 10.7235 21.6637V24.2425Z" fill="white"/>
</svg>
