<svg width="91" height="91" viewBox="0 0 91 91" fill="none" xmlns="http://www.w3.org/2000/svg">
<path d="M73.3629 68.4018C72.7388 68.1373 72.0678 68.0016 71.39 68.0027C70.7123 68.0038 70.0417 68.1418 69.4185 68.4083L60.3269 72.2688C60.3974 71.5834 60.3233 70.8909 60.1094 70.236C59.8955 69.5811 59.5465 68.9784 59.0851 68.4668C58.6236 67.9553 58.06 67.5462 57.4305 67.2661C56.8011 66.986 56.1199 66.8411 55.4309 66.8408H44.5226C43.4194 66.8396 42.3315 66.5827 41.3442 66.0904C36.7802 63.8153 31.7513 62.6282 26.6516 62.6221H23.0872C23.0872 62.2491 22.939 61.8914 22.6753 61.6277C22.4116 61.364 22.0539 61.2158 21.6809 61.2158H13.2434C12.8704 61.2158 12.5128 61.364 12.249 61.6277C11.9853 61.8914 11.8372 62.2491 11.8372 62.6221H3.39966V65.4346H11.8372V79.4971H3.39966V82.3096H11.8372C11.8372 82.6825 11.9853 83.0402 12.249 83.3039C12.5128 83.5677 12.8704 83.7158 13.2434 83.7158H21.6809C22.0539 83.7158 22.4116 83.5677 22.6753 83.3039C22.939 83.0402 23.0872 82.6825 23.0872 82.3096V81.7733L33.5862 86.1326C39.3097 88.4694 45.7081 88.5401 51.4818 86.3304L73.2052 78.0478C73.8421 77.8058 74.4243 77.4391 74.9175 76.969C75.4107 76.4989 75.805 75.9351 76.0773 75.3105C76.3592 74.6771 76.5117 73.9938 76.5259 73.3007C76.5401 72.6076 76.4157 71.9186 76.1599 71.2742C75.911 70.6318 75.535 70.0462 75.0544 69.5527C74.5738 69.0591 73.9985 68.6676 73.3629 68.4018ZM20.2747 80.9033H14.6497V64.0283H20.2747V80.9033ZM73.5044 74.1744C73.3814 74.4582 73.203 74.7145 72.9797 74.9284C72.7563 75.1422 72.4924 75.3093 72.2036 75.4198L50.4797 83.7032C45.3745 85.6577 39.717 85.5965 34.6553 83.532L23.0872 78.728V65.4346H26.6516C31.3147 65.4401 35.913 66.5256 40.0863 68.606C41.4643 69.293 42.9828 69.6515 44.5226 69.6533H55.4309C55.9824 69.654 56.5116 69.8707 56.9051 70.257C57.2987 70.6433 57.5252 71.1684 57.5361 71.7197C57.547 72.271 57.3415 72.8047 56.9636 73.2063C56.5856 73.6078 56.0654 73.8453 55.5144 73.8678C55.4576 73.8694 38.5559 73.8721 38.5559 73.8721V76.6846C38.5559 76.6846 55.6262 76.6809 55.7229 76.6751C56.7686 76.6315 57.7978 76.3992 58.7609 75.9895L70.5166 70.9973C70.7943 70.8787 71.0929 70.8174 71.3948 70.8169C71.6967 70.8165 71.9956 70.8769 72.2736 70.9947C72.5623 71.1162 72.8236 71.2948 73.0417 71.5197C73.2597 71.7446 73.4302 72.0112 73.5427 72.3036C73.6612 72.6023 73.7189 72.9216 73.7123 73.2429C73.7057 73.5641 73.635 73.8808 73.5044 74.1744Z" fill="white"/>
<path d="M87.7747 11.9961V9.18363H79.3372C79.3372 8.81067 79.189 8.45299 78.9253 8.18926C78.6616 7.92554 78.3039 7.77738 77.9309 7.77738H69.4934C69.1205 7.77738 68.7628 7.92554 68.4991 8.18926C68.2353 8.45299 68.0872 8.81067 68.0872 9.18363V9.71994L57.5881 5.36057C51.8646 3.02367 45.4663 2.95297 39.6925 5.16281L17.9691 13.4446C17.3322 13.6865 16.75 14.0533 16.2568 14.5233C15.7636 14.9934 15.3693 15.5573 15.097 16.1818C14.8151 16.8152 14.6626 17.4985 14.6484 18.1916C14.6342 18.8848 14.7587 19.5738 15.0144 20.2181C15.2633 20.8605 15.6393 21.4461 16.1199 21.9397C16.6006 22.4333 17.1759 22.8247 17.8115 23.0906C18.4355 23.355 19.1065 23.4907 19.7843 23.4896C20.4621 23.4885 21.1326 23.3505 21.7558 23.0841L30.8474 19.2236C30.7768 19.909 30.8508 20.6016 31.0646 21.2566C31.2785 21.9116 31.6274 22.5144 32.0889 23.0261C32.5504 23.5377 33.1141 23.9469 33.7436 24.227C34.3731 24.5072 35.0544 24.6521 35.7434 24.6524H46.6517C47.7549 24.6537 48.8429 24.9105 49.8302 25.4028C54.3942 27.6779 59.4231 28.865 64.5227 28.8711H68.0872C68.0872 29.2441 68.2353 29.6018 68.4991 29.8655C68.7628 30.1292 69.1205 30.2774 69.4934 30.2774H77.9309C78.3039 30.2774 78.6616 30.1292 78.9253 29.8655C79.189 29.6018 79.3372 29.2441 79.3372 28.8711H87.7747V26.0586H79.3372V11.9961H87.7747ZM64.5227 26.0586C59.8597 26.0531 55.2613 24.9676 51.0881 22.8872C49.71 22.2002 48.1915 21.8417 46.6517 21.8399H35.7434C35.192 21.8392 34.6628 21.6225 34.2692 21.2362C33.8757 20.8499 33.6492 20.3248 33.6382 19.7735C33.6273 19.2222 33.8329 18.6885 34.2108 18.2869C34.5887 17.8854 35.109 17.6479 35.6599 17.6254C35.7167 17.6229 52.6184 17.6211 52.6184 17.6211V14.8086C52.6184 14.8086 35.5481 14.8123 35.4515 14.8181C34.4058 14.8617 33.3765 15.094 32.4134 15.5037L20.6577 20.4959C20.38 20.6147 20.0811 20.6761 19.7791 20.6766C19.477 20.677 19.178 20.6165 18.8999 20.4985C18.6111 20.377 18.3499 20.1984 18.1318 19.9735C17.9137 19.7486 17.7433 19.482 17.6308 19.1896C17.5123 18.891 17.4546 18.5717 17.4612 18.2504C17.4678 17.9292 17.5384 17.6125 17.6691 17.319C17.792 17.0352 17.9704 16.7789 18.1938 16.565C18.4172 16.3511 18.681 16.1841 18.9699 16.0736L40.6947 7.78916C45.7998 5.83475 51.4573 5.89596 56.519 7.96037L68.0872 12.7643V26.0586H64.5227ZM76.5247 27.4649H70.8997V10.5899H76.5247V27.4649Z" fill="white"/>
<path d="M75.5803 33.6172C77.6211 38.6786 78.3503 44.1736 77.7002 49.5921C77.0501 55.0106 75.0418 60.1771 71.8617 64.6122L74.1447 66.2547C77.6023 61.434 79.7858 55.8179 80.4925 49.9277C81.1993 44.0376 80.4064 38.0643 78.1875 32.5625L75.5803 33.6172Z" fill="white"/>
<path d="M17.0295 25.2373C13.572 30.058 11.3885 35.6742 10.6817 41.5643C9.97493 47.4545 10.7678 53.4278 12.9867 58.9296L15.5939 57.875C13.5531 52.8135 12.824 47.3186 13.4741 41.9001C14.1241 36.4815 16.1324 31.315 19.3126 26.88L17.0295 25.2373Z" fill="white"/>
<path d="M61.0559 45.7461H55.4309V48.5586H61.0559V45.7461Z" fill="#D40000"/>
<path d="M35.7434 45.7461H30.1184V48.5586H35.7434V45.7461Z" fill="#D40000"/>
<path d="M25.8996 40.1211C25.5569 40.1211 25.2259 40.2463 24.969 40.4731C24.712 40.7 24.5468 41.0129 24.5043 41.353L23.098 52.603C23.0733 52.8008 23.0909 53.0017 23.1497 53.1922C23.2086 53.3827 23.3072 53.5585 23.4392 53.708C23.5711 53.8575 23.7334 53.9772 23.9151 54.0592C24.0969 54.1412 24.294 54.1836 24.4934 54.1836H25.8996V56.293C25.9007 57.225 26.2714 58.1186 26.9305 58.7777C27.5896 59.4368 28.4832 59.8075 29.4152 59.8086H35.0402C35.9723 59.8075 36.8659 59.4368 37.525 58.7777C38.1841 58.1186 38.5548 57.225 38.5559 56.293V54.1836H52.6184V56.293C52.6194 57.225 52.9902 58.1186 53.6493 58.7777C54.3083 59.4368 55.2019 59.8075 56.134 59.8086H61.759C62.6911 59.8075 63.5847 59.4368 64.2437 58.7777C64.9028 58.1186 65.2735 57.225 65.2746 56.293V54.1836H66.6809C66.8803 54.1836 67.0774 54.1412 67.2591 54.0592C67.4409 53.9772 67.6031 53.8575 67.7351 53.708C67.867 53.5585 67.9657 53.3827 68.0245 53.1922C68.0833 53.0017 68.1009 52.8008 68.0762 52.603L66.67 41.353C66.6275 41.0129 66.4622 40.7 66.2053 40.4731C65.9483 40.2463 65.6174 40.1211 65.2746 40.1211H63.4757L63.007 38.7148H65.2746V35.9023H62.0694L60.9838 32.6451C60.8904 32.3651 60.7114 32.1216 60.4719 31.949C60.2325 31.7764 59.9448 31.6836 59.6496 31.6836H31.5246C31.2295 31.6836 30.9418 31.7764 30.7023 31.949C30.4629 32.1216 30.2838 32.3651 30.1904 32.6451L29.1048 35.9023H25.8996V38.7148H28.1672L27.6986 40.1211H25.8996ZM35.7434 56.293C35.7434 56.4794 35.6693 56.6583 35.5374 56.7902C35.4056 56.922 35.2267 56.9961 35.0402 56.9961H29.4152C29.2288 56.9961 29.0499 56.922 28.9181 56.7902C28.7862 56.6583 28.7121 56.4794 28.7121 56.293V54.1836H35.7434V56.293ZM49.8059 51.3711H41.3684V48.5586H49.8059V51.3711ZM62.4621 56.293C62.4621 56.4794 62.388 56.6583 62.2562 56.7902C62.1243 56.922 61.9455 56.9961 61.759 56.9961H56.134C55.9475 56.9961 55.7687 56.922 55.6368 56.7902C55.5049 56.6583 55.4309 56.4794 55.4309 56.293V54.1836H62.4621V56.293ZM65.0879 51.3711H52.6184V47.1523C52.6184 46.7794 52.4702 46.4217 52.2065 46.158C51.9428 45.8943 51.5851 45.7461 51.2121 45.7461H39.9621C39.5892 45.7461 39.2315 45.8943 38.9677 46.158C38.704 46.4217 38.5559 46.7794 38.5559 47.1523V51.3711H26.0863L27.141 42.9336H64.0332L65.0879 51.3711ZM32.5382 34.4961H58.6361L60.5109 40.1211H30.6633L32.5382 34.4961Z" fill="#D40000"/>
</svg>
