<svg width="95" height="94" viewBox="0 0 95 94" fill="none" xmlns="http://www.w3.org/2000/svg">
<path fill-rule="evenodd" clip-rule="evenodd" d="M82.9553 43.8573H76.6152C74.516 43.8573 72.8071 45.5501 72.8071 47.6312V48.8335L66.3089 50.6173C65.3805 50.871 64.6631 50.8511 64.104 50.5578L56.2449 46.4509C54.5675 45.5795 52.4155 45.7515 50.6011 46.8986C50.6011 46.9017 50.5906 46.9049 50.5906 46.9081L47.9428 48.6343L44.3351 46.1661C42.9426 45.2142 40.664 44.5421 38.8284 45.782L31.9399 50.4473C29.9882 51.7655 25.7054 50.0433 23.0469 48.8912V47.6314C23.0469 45.5503 21.338 43.8575 19.2388 43.8575H12.8986C10.7993 43.8575 9.09033 45.5503 9.09033 47.6314V69.2431C9.09033 71.3243 10.7993 73.0171 12.8986 73.0171H19.2386C20.9791 73.0171 22.456 71.8481 22.9096 70.2596C23.838 70.5862 24.6396 70.9171 25.2937 71.2428L24.6502 72.1321C23.4052 73.8792 23.8906 76.3653 25.7366 77.6741C26.6142 78.2948 27.6743 78.555 28.7326 78.4256C29.162 80.5387 31.2285 82.0199 33.4164 81.7362C33.846 83.8497 35.9315 85.3295 38.1002 85.0477C38.8477 88.5421 43.4513 89.5776 45.4424 86.8095L45.8221 86.2783L45.8643 86.2971C46.6871 86.7292 47.7948 87.0485 48.9657 87.0485C50.1366 87.0485 51.3815 86.7355 52.4997 85.9067C53.2487 85.3556 53.7762 84.7243 54.0926 84.029C55.0159 81.9843 56.5321 82.6076 58.4283 81.0389C59.0506 80.5222 59.5571 79.8877 59.8735 79.202C60.2743 78.3201 61.0971 77.6552 62.1838 77.3317C63.7072 76.8779 65.0961 75.8002 65.7494 74.3739C66.1502 73.4919 66.9731 72.8272 68.0597 72.5046C68.8298 72.274 69.5577 71.8867 70.1697 71.3827C70.349 71.2367 70.5178 71.0789 70.6759 70.9151C71.3721 70.6353 72.1106 70.318 72.8806 69.9758C73.2288 71.7073 74.7689 73.0171 76.615 73.0171H82.9552C85.0544 73.0171 86.7633 71.3241 86.7633 69.2431V47.6314C86.7635 45.5503 85.0546 43.8573 82.9553 43.8573ZM82.9553 70.5414C83.6728 70.5414 84.2634 69.9589 84.2634 69.243V47.6314C84.2634 46.9155 83.6728 46.3331 82.9553 46.3331H76.6152C75.8978 46.3331 75.3071 46.9155 75.3071 47.6314V69.243C75.3071 69.959 75.8978 70.5414 76.6152 70.5414H82.9553ZM61.4668 74.9624C62.2968 74.7143 63.1221 74.1148 63.471 73.3437C63.7348 72.7717 64.0935 72.2541 64.5263 71.8023C64.368 71.7156 64.2097 71.6113 64.0726 71.485L53.4286 61.8184C52.6479 61.1129 51.1183 61.3696 50.0634 61.9687C47.5737 63.3953 44.3668 64.8658 40.8012 64.8669C37.9213 64.8669 34.7988 63.9036 31.6234 61.1754C31.0017 60.6416 31.0754 59.656 31.7605 59.2092L45.6958 50.105L42.9108 48.2024C42.3201 47.7955 41.0859 47.2568 40.2419 47.8247L33.3534 52.4899C30.4552 54.4466 25.9998 52.8214 23.0469 51.5871V67.6912C24.5449 68.1826 25.7898 68.69 26.7603 69.2065L27.8467 67.6941C29.8484 64.8935 34.4782 66.0164 35.1783 69.4539C37.3644 69.1786 39.4318 70.6508 39.8622 72.7654C42.0578 72.489 44.1033 73.9618 44.5565 76.076C45.5903 75.9445 46.677 76.2159 47.542 76.8306C49.3987 78.1393 49.8839 80.6245 48.6286 82.3716L47.2889 84.2314C48.3756 84.6917 49.863 84.7646 51.0023 83.9224C51.4031 83.6302 51.6669 83.3295 51.8039 83.03C52.7323 80.9511 54.1459 80.3896 55.2957 79.9376C56.2507 79.5583 57.1486 79.1439 57.5953 78.1717C58.3127 76.6344 59.6839 75.4948 61.4668 74.9624ZM46.5926 80.9386L43.3962 85.3764C42.945 86.0335 41.9431 86.078 41.2547 85.5925C40.5375 85.0851 40.3053 84.1261 40.7589 83.4998L43.9448 79.061C44.4212 78.3826 45.4251 78.3748 46.0863 78.845C46.814 79.3533 47.0357 80.3124 46.5926 80.9386ZM38.7124 82.0658C38.2271 82.7373 37.2371 82.7579 36.5603 82.2817C35.8429 81.7736 35.6215 80.8144 36.0646 80.1881L39.2504 75.7492C39.7261 75.0912 40.7166 75.0501 41.4025 75.5333C42.1197 76.0416 42.3519 76.9997 41.8982 77.6269L38.7124 82.0658ZM34.0285 78.7541C33.5484 79.4198 32.5603 79.4512 31.8765 78.9702C31.1591 78.4619 30.9271 77.5038 31.3807 76.8764L34.5666 72.4386C35.0537 71.7634 36.0471 71.7499 36.7186 72.2227C37.4358 72.731 37.668 73.69 37.2144 74.3163L34.0285 78.7541ZM29.3447 75.4436C28.8666 76.1064 27.8772 76.1411 27.1927 75.6596C26.4754 75.1514 26.2433 74.1922 26.6969 73.565L29.8828 69.1282C30.3727 68.4491 31.3666 68.4415 32.0348 68.9111C32.7522 69.4206 32.9737 70.3787 32.5305 71.0059L29.3447 75.4436ZM19.2388 70.5414C19.9562 70.5414 20.5469 69.9589 20.5469 69.243L20.5467 47.6314C20.5467 46.9155 19.956 46.3331 19.2386 46.3331H12.8986C12.1812 46.3331 11.5905 46.9155 11.5905 47.6314V69.243C11.5905 69.959 12.1812 70.5414 12.8986 70.5414H19.2388ZM34.5876 60.3269L51.962 48.9777C52.7849 48.458 54.0297 48.0959 55.0738 48.6395L62.933 52.7464C64.0722 53.3403 65.4332 53.4259 66.9733 53.0022L72.8069 51.4022V67.2883C71.5201 67.879 70.0115 68.5575 68.6296 69.0428C66.5196 69.7868 65.8445 69.6648 65.7285 69.6293L55.1161 59.995C53.3649 58.4044 50.6222 58.7927 48.8183 59.826C44.9468 62.0323 39.9255 63.9933 34.5876 60.3269Z" fill="white"/>
<path fill-rule="evenodd" clip-rule="evenodd" d="M37.6257 26.6605C37.13 26.1929 37.0982 25.4102 37.5729 24.9123C38.0476 24.4143 38.8389 24.3894 39.3452 24.8568L44.7252 29.8561L55.7807 18.3245C56.2554 17.8288 57.0467 17.8078 57.553 18.2786C58.0487 18.7493 58.07 19.532 57.5951 20.0277L45.6851 32.4529C45.2049 32.9469 44.4268 32.9694 43.9233 32.504L37.6257 26.6605Z" fill="white"/>
<path fill-rule="evenodd" clip-rule="evenodd" d="M47.9576 6.09985C47.7371 6.09985 47.5429 6.13966 47.3416 6.24605C41.6239 9.26743 36.286 10.807 31.8133 11.9144C30.906 12.1387 30.3048 12.9008 30.3048 13.8109V27.5782C30.3048 35.7168 34.9873 38.3441 40.4086 41.3859L40.4109 41.3872C42.5946 42.6146 44.8521 43.8848 47.1624 45.6539C47.62 45.9989 48.2449 45.9989 48.7025 45.6539C51.0128 43.8848 53.2703 42.6146 55.4645 41.3872L55.4772 41.3801C60.8834 38.3407 65.5599 35.7116 65.5599 27.5782V13.8107C65.5599 12.9006 64.9587 12.1387 64.0514 11.9142C59.5892 10.807 54.2408 9.26743 48.5231 6.24586C48.346 6.15249 48.1522 6.10376 47.9576 6.09985ZM47.9323 8.7351C42.3624 11.598 37.1828 13.1208 32.8048 14.2197V27.5778C32.8048 34.2763 36.3176 36.2488 41.645 39.2348L41.6638 39.2454C43.5896 40.3282 45.7452 41.5402 47.9323 43.1258C50.1264 41.5351 52.289 40.3203 54.2301 39.2348C59.5469 36.2488 63.0597 34.2763 63.0597 27.5778V14.2197C58.6817 13.1206 53.5021 11.598 47.9323 8.7351Z" fill="#D40000"/>
</svg>
