<svg width="67" height="67" viewBox="0 0 67 67" fill="none" xmlns="http://www.w3.org/2000/svg">
<path d="M43.4672 10.0448L44.0364 11.5655L44.6057 10.0448C44.8434 9.40971 45.2146 8.83301 45.6943 8.35363C46.1739 7.87425 46.7507 7.50333 47.3859 7.26592L48.8984 6.69667L47.3859 6.12742C46.7512 5.88936 46.1749 5.51803 45.6958 5.03844C45.2166 4.55885 44.8459 3.98214 44.6084 3.34717L44.0392 1.82642L43.4672 3.34717C43.2298 3.98214 42.859 4.55885 42.3799 5.03844C41.9008 5.51803 41.3244 5.88936 40.6897 6.12742L39.1689 6.69667L40.6897 7.26592C41.3244 7.50366 41.9007 7.87473 42.3799 8.35409C42.859 8.83346 43.2298 9.40998 43.4672 10.0448Z" fill="white"/>
<path d="M54.023 15.6369L54.4534 16.7891L54.8796 15.6369C55.0596 15.1552 55.341 14.7177 55.7046 14.354C56.0683 13.9904 56.5057 13.709 56.9875 13.529L58.1397 13.0973L56.9875 12.6655C56.5057 12.4855 56.0683 12.2042 55.7046 11.8405C55.341 11.4769 55.0596 11.0394 54.8796 10.5576L54.4479 9.4054L54.0175 10.5576C53.8371 11.0392 53.5556 11.4764 53.192 11.84C52.8284 12.2036 52.3911 12.4851 51.9096 12.6655L50.756 13.0973L51.9096 13.529C52.3921 13.7088 52.8305 13.99 53.1951 14.3536C53.5596 14.7172 53.842 15.1548 54.023 15.6369Z" fill="white"/>
<path d="M60.4649 9.23489L60.8952 10.3885L61.327 9.23489C61.5074 8.75337 61.7889 8.3161 62.1525 7.9525C62.5161 7.58891 62.9534 7.30743 63.4349 7.12701L64.5871 6.69664L63.4349 6.26489C62.9531 6.08486 62.5157 5.80352 62.152 5.43987C61.7884 5.07623 61.507 4.63875 61.327 4.15701L60.8952 3.00476L60.4649 4.15701C60.2845 4.63852 60.003 5.0758 59.6394 5.43939C59.2758 5.80299 58.8385 6.08447 58.357 6.26489L57.2034 6.69664L58.357 7.12701C58.8382 7.3079 59.2753 7.58954 59.6388 7.95308C60.0023 8.31661 60.284 8.75364 60.4649 9.23489Z" fill="white"/>
<path d="M54.7161 61.5056V64.3697C54.7161 64.5534 54.7523 64.7352 54.8228 64.9048C54.8933 65.0744 54.9967 65.2284 55.1269 65.358C55.2571 65.4876 55.4116 65.5901 55.5815 65.6598C55.7515 65.7294 55.9335 65.7648 56.1172 65.7639H61.4797C61.8495 65.7639 62.2041 65.617 62.4656 65.3556C62.727 65.0941 62.8739 64.7395 62.8739 64.3697V58.8491C61.9888 59.7384 60.9283 60.4339 59.7599 60.8912C58.5914 61.3485 57.3406 61.5578 56.0869 61.5056H54.7161Z" fill="white"/>
<path d="M2.81116 58.7679V64.3697C2.81116 64.7395 2.95805 65.0941 3.21952 65.3556C3.481 65.6171 3.83563 65.7639 4.20541 65.7639H9.56791C9.93769 65.7639 10.2923 65.6171 10.5538 65.3556C10.8153 65.0941 10.9622 64.7395 10.9622 64.3697V61.5056H9.67653C8.40369 61.5605 7.13368 61.3449 5.95027 60.873C4.76687 60.4011 3.69697 59.6836 2.81116 58.7679Z" fill="white"/>
<path d="M2.85095 53.1827C2.85095 57.1344 5.60095 59.4376 9.67645 59.4376H56.0841C60.1541 59.4376 62.9096 57.1344 62.9096 53.1827V52.0414H2.85095V53.1827Z" fill="white"/>
<path d="M63.5421 27.7451L60.1046 27.1484C59.83 27.1005 59.5473 27.1466 59.3023 27.2794C59.0572 27.4121 58.8641 27.6237 58.7543 27.8799L57.6846 30.2985L57.2501 29.6358L54.2361 22.5201C53.75 21.3658 52.978 20.3542 51.9929 19.5806C51.0079 18.807 49.8421 18.2968 48.6055 18.0981C43.4012 17.308 38.1434 16.9241 32.8796 16.95C27.6161 16.9254 22.3587 17.3107 17.1551 18.1023C15.9172 18.3 14.7501 18.8097 13.7638 19.5833C12.7775 20.357 12.0044 21.3691 11.5176 22.5243L8.51046 29.6289L8.08283 30.282L7.00621 27.873C6.8964 27.6169 6.70333 27.4053 6.45827 27.2725C6.21321 27.1397 5.93051 27.0936 5.65596 27.1415L2.21708 27.7451C1.89941 27.7965 1.61043 27.9594 1.40203 28.2046C1.19362 28.4498 1.07943 28.7612 1.07996 29.083V29.7581C1.08002 30.068 1.18601 30.3685 1.38033 30.6098C1.57465 30.8512 1.84563 31.0188 2.14833 31.085L6.85633 32.1616L4.60133 35.5991C3.46011 37.3396 2.85221 39.3754 2.85233 41.4566V49.9816H62.9096V41.4566C62.9092 39.3753 62.3008 37.3394 61.1592 35.5991L58.896 32.1451L63.6122 31.0823C63.9149 31.0161 64.1859 30.8484 64.3802 30.6071C64.5745 30.3658 64.6805 30.0652 64.6806 29.7554V29.0803C64.6804 28.7587 64.5657 28.4478 64.3571 28.2031C64.1485 27.9585 63.8595 27.7961 63.5421 27.7451ZM13.422 23.33C13.7694 22.4958 14.3247 21.7644 15.035 21.2057C15.7453 20.6471 16.587 20.2797 17.4796 20.1386C22.576 19.3651 27.7248 18.9886 32.8796 19.0125C38.0343 18.9886 43.1832 19.3651 48.2796 20.1386C49.1715 20.2801 50.0124 20.6475 50.7222 21.2059C51.432 21.7643 51.987 22.4951 52.3345 23.3286L54.6513 28.7929H11.1051L13.422 23.33ZM9.04808 43.2675C8.64388 43.2086 8.26668 43.0296 7.96537 42.7538C7.66407 42.478 7.45254 42.1181 7.35821 41.7206C7.23391 41.2571 7.18516 40.7766 7.21383 40.2975C7.32521 39.06 7.71433 38.4509 8.50083 38.4509C8.50083 38.4509 13.8936 38.7864 14.6223 39.0105C15.3511 39.2346 18.1478 44.5518 18.1478 44.5518L9.04808 43.2675ZM43.5936 45.33L32.8136 45.946L22.1656 45.3451L19.45 39.5853C19.45 39.5853 29.0158 40.4185 32.8782 40.4185C36.7406 40.4185 46.3092 39.5853 46.3092 39.5853L43.5936 45.33ZM58.3996 41.7261C58.3053 42.1236 58.0937 42.4835 57.7924 42.7593C57.4911 43.0351 57.1139 43.2141 56.7097 43.273L47.61 44.5573C47.61 44.5573 50.4081 39.2401 51.1368 39.016C51.8656 38.7919 57.257 38.4564 57.257 38.4564C58.0448 38.4564 58.4326 39.071 58.544 40.303C58.5726 40.7821 58.5239 41.2626 58.3996 41.7261Z" fill="white"/>
</svg>
