<svg width="1123" height="722" viewBox="0 0 1123 722" fill="none" xmlns="http://www.w3.org/2000/svg">
<g clip-path="url(#clip0_162_2825)">
<path d="M984.764 120.251L950.417 140.286L916.069 160.326V80.1807L984.764 120.251Z" fill="#121212"/>
<path d="M984.764 40.1102L916.069 80.1802V0.0351562L950.417 20.0752L984.764 40.1102Z" fill="#606060"/>
<path d="M572.6 681.25L606.948 701.285L641.292 721.326L606.948 741.36L572.6 761.396V681.25Z" fill="#FF3040"/>
<path d="M847.375 681.251L813.031 701.286L778.683 721.326V641.181L813.031 661.216L847.375 681.251Z" fill="#EFEFEF"/>
<path d="M916.069 721.326V641.181L984.764 681.251L950.417 701.286L916.069 721.326Z" fill="white"/>
<path d="M1053.46 240.466L1019.11 260.501L984.765 280.536V200.396L1019.11 220.431L1053.46 240.466Z" fill="#FF3040"/>
<path d="M984.765 40.1104L1019.11 60.1454L1053.46 80.1804L1019.11 100.215L984.765 120.25V40.1104Z" fill="#444444"/>
<path d="M1053.46 160.325L1019.11 180.36L984.765 200.395V120.25L1019.11 140.285L1053.46 160.325Z" fill="#444444"/>
<path d="M984.765 681.25V601.11L1019.11 621.145L1053.46 641.18L1019.11 661.215L984.765 681.25Z" fill="#121212"/>
<path d="M984.765 761.396V681.25L1019.11 701.285L1053.46 721.326L1019.11 741.36L984.765 761.396Z" fill="#121212"/>
<path d="M984.765 360.681L1019.11 380.716L1053.46 400.751L1019.11 420.786L984.765 440.826V360.681Z" fill="white"/>
<path d="M847.375 200.395L813.031 220.43L778.683 240.465V160.325L813.031 180.36L847.375 200.395Z" fill="#FF3040"/>
<path d="M709.988 280.536V200.396L778.683 240.466L709.988 280.536Z" fill="white"/>
<path d="M709.987 120.251L675.639 140.286L641.292 160.326V80.1807L709.987 120.251Z" fill="#FF3040"/>
<path d="M778.683 160.326V80.1807L813.031 100.216L847.375 120.251L813.031 140.286L778.683 160.326Z" fill="#FF3040"/>
<path d="M916.069 400.751L881.721 420.786L847.374 440.826V360.681L916.069 400.751Z" fill="#EFEFEF"/>
<path d="M1053.46 80.1802V0.0351562L1087.8 20.0752L1122.15 40.1102L1053.46 80.1802Z" fill="#FF0000"/>
<path d="M1053.46 240.465V160.325L1122.15 200.395L1053.46 240.465Z" fill="#121212"/>
<path d="M641.292 561.035L709.987 520.965V601.11L675.639 581.075L641.292 561.035Z" fill="#FF3040"/>
<path d="M709.988 40.1102L744.336 20.0752L778.683 0.0351562V80.1802L709.988 40.1102Z" fill="white"/>
<path d="M709.988 440.826L744.336 420.785L778.683 400.75V480.896L709.988 440.826Z" fill="#FF3040"/>
<path d="M778.683 641.18L709.988 601.11L744.336 581.075L778.683 561.035V641.18Z" fill="white"/>
<path d="M847.375 520.965L813.031 500.93L778.683 480.895L813.031 460.86L847.375 440.825V520.965Z" fill="#EFEFEF"/>
<path d="M847.375 601.11L813.031 581.075L778.683 561.035L813.031 541L847.375 520.965V601.11Z" fill="#444444"/>
<path d="M847.375 681.25V761.396L813.031 741.36L778.683 721.326L813.031 701.285L847.375 681.25Z" fill="#FF0000"/>
<path d="M916.069 80.1802L847.374 40.1102L881.721 20.0752L916.069 0.0351562V80.1802Z" fill="#121212"/>
<path d="M916.069 160.326L881.721 140.286L847.374 120.251L916.069 80.1807V160.326Z" fill="white"/>
<path d="M916.069 320.61L881.721 300.575L847.374 280.535L916.069 240.465V320.61Z" fill="#EFEFEF"/>
<path d="M916.069 400.75L847.374 360.68L916.069 320.61V400.75Z" fill="#444444"/>
<path d="M916.069 400.75V480.896L847.374 440.826L881.721 420.785L916.069 400.75Z" fill="#FF3040"/>
<path d="M916.069 480.896V561.035L847.374 520.965L916.069 480.896Z" fill="#121212"/>
<path d="M847.374 601.11L881.721 581.075L916.069 561.035V641.18L847.374 601.11Z" fill="white"/>
<path d="M916.069 721.326L881.721 701.286L847.374 681.251L916.069 641.181V721.326Z" fill="#121212"/>
<path d="M984.764 40.1104V120.25L916.069 80.1804L984.764 40.1104Z" fill="white"/>
<path d="M984.764 280.536L916.069 240.466L984.764 200.396V280.536Z" fill="#FF0000"/>
<path d="M984.764 280.535V360.68L916.069 320.61L950.417 300.575L984.764 280.535Z" fill="#121212"/>
<path d="M916.069 480.895L984.764 440.825V520.965L916.069 480.895Z" fill="white"/>
<path d="M916.069 641.18L984.764 601.11V681.25L916.069 641.18Z" fill="#444444"/>
<path d="M916.069 721.326L950.417 701.285L984.764 681.25V761.396L916.069 721.326Z" fill="#444444"/>
<path d="M1053.46 80.1807V160.326L1019.11 140.286L984.765 120.251L1019.11 100.216L1053.46 80.1807Z" fill="#FF3040"/>
<path d="M984.765 360.68L1019.11 340.645L1053.46 320.61V400.75L1019.11 380.715L984.765 360.68Z" fill="#FF0000"/>
<path d="M984.765 520.965L1019.11 500.93L1053.46 480.896V561.035L1019.11 541L984.765 520.965Z" fill="#121212"/>
<path d="M984.765 601.11L1019.11 581.075L1053.46 561.035V641.18L1019.11 621.145L984.765 601.11Z" fill="#FF0000"/>
<path d="M984.765 681.251L1019.11 661.216L1053.46 641.181V721.326L1019.11 701.286L984.765 681.251Z" fill="#444444"/>
<path d="M1053.46 80.1804L1122.15 40.1104V120.25L1053.46 80.1804Z" fill="white"/>
<path d="M1053.46 160.325L1087.8 140.285L1122.15 120.25V200.395L1053.46 160.325Z" fill="#444444"/>
<path d="M1053.46 240.466L1122.15 200.396V280.536L1053.46 240.466Z" fill="#FF0000"/>
<path d="M1122.15 280.535V360.68L1053.46 320.61L1087.8 300.575L1122.15 280.535Z" fill="white"/>
<path d="M1053.46 480.895L1122.15 440.825V520.965L1053.46 480.895Z" fill="white"/>
<path d="M1122.15 520.965V601.11L1087.8 581.075L1053.46 561.035L1122.15 520.965Z" fill="#FF0000"/>
<path d="M1053.46 721.326L1087.8 701.285L1122.15 681.25V761.396L1053.46 721.326Z" fill="#444444"/>
<rect width="1141.71" height="715.719" transform="matrix(0 -1 -1 0 1122.15 941.396)" fill="url(#paint0_linear_162_2825)"/>
<rect x="418.038" y="-80.1084" width="721.291" height="818.387" fill="url(#paint1_linear_162_2825)"/>
</g>
<defs>
<linearGradient id="paint0_linear_162_2825" x1="570.857" y1="0" x2="570.857" y2="715.719" gradientUnits="userSpaceOnUse">
<stop stop-color="#1A1C1D" stop-opacity="0"/>
<stop offset="1" stop-color="#1A1C1D"/>
</linearGradient>
<linearGradient id="paint1_linear_162_2825" x1="778.683" y1="-80.1084" x2="778.683" y2="738.279" gradientUnits="userSpaceOnUse">
<stop stop-color="#1A1C1D" stop-opacity="0"/>
<stop offset="1" stop-color="#1A1C1D"/>
</linearGradient>
<clipPath id="clip0_162_2825">
<rect width="1122" height="721" fill="white" transform="matrix(-1 0 0 1 1122.61 0.196289)"/>
</clipPath>
</defs>
</svg>
