<svg width="95" height="95" viewBox="0 0 95 95" fill="none" xmlns="http://www.w3.org/2000/svg">
<path d="M66.3906 10.0175C56.0055 10.0175 47.5906 18.4352 47.5906 28.8175C47.5906 39.2026 56.0055 47.6175 66.3906 47.6175C76.7701 47.6175 85.1906 39.2026 85.1906 28.8175C85.1906 18.4352 76.7701 10.0175 66.3906 10.0175ZM56.9906 30.3844H52.2906V27.2514H56.9906V30.3844ZM67.9576 42.9174H64.8236V38.2175H67.9576V42.9174ZM72.933 37.786L64.1073 29.7631L64.8236 14.7175H67.9576L68.5845 27.9085L75.3591 35.3589L72.933 37.786ZM75.7906 30.3844V27.2514H80.4906V30.3844H75.7906Z" fill="white"/>
<path d="M70.9186 60.6778L69.1504 58.0213L67.5712 58.4321C59.1723 60.6091 50.3354 61.7174 41.3039 61.7174C32.3062 61.7174 23.4834 60.6091 15.0779 58.4312L13.4977 58.0204L11.7296 60.6768C10.7727 62.1094 9.9906 64.6916 9.9906 66.4174V85.2174H16.2576L19.3906 78.9504H63.2576L66.3906 85.2174H72.6576V66.4174C72.6576 64.6916 71.8736 62.1094 70.9186 60.6778ZM25.6576 72.6844H17.8246V67.9844H25.6576V72.6844ZM50.7236 72.6844H31.9236V67.9844H50.7236V72.6844ZM64.8236 72.6844H56.9906V67.9844H64.8236V72.6844Z" fill="white"/>
<path d="M42.1574 35.1145C35.3725 35.0468 28.691 35.8364 22.5236 37.4335L18.6442 47.6174H9.9906V52.3174L16.2576 53.8844C32.9689 58.2169 50.8956 57.9048 66.3906 53.8844C54.7478 53.8844 44.9624 45.8916 42.1574 35.1145Z" fill="white"/>
</svg>
