<svg width="71" height="70" viewBox="0 0 71 70" fill="none" xmlns="http://www.w3.org/2000/svg">
<g clip-path="url(#clip0_116_34)">
<path d="M66.7374 22.5H29.2374V23.75C29.2374 25.8211 27.5585 27.5 25.4874 27.5H22.9874V30H28.4249C30.7852 28.3329 33.9396 28.3329 36.2999 30H46.7374V26.25C46.7374 25.5596 47.2971 25 47.9874 25C48.6778 25 49.2374 25.5596 49.2374 26.25V30H55.9249C58.2852 28.3329 61.4396 28.3329 63.7999 30H67.9874V23.75C67.9874 23.0596 67.4278 22.5 66.7374 22.5ZM41.7374 27.5H39.2374C38.5471 27.5 37.9874 26.9404 37.9874 26.25C37.9874 25.5596 38.5471 25 39.2374 25H41.7374C42.4278 25 42.9874 25.5596 42.9874 26.25C42.9874 26.9404 42.4278 27.5 41.7374 27.5ZM55.4874 27.5H52.9874C52.2971 27.5 51.7374 26.9404 51.7374 26.25C51.7374 25.5596 52.2971 25 52.9874 25H55.4874C56.1778 25 56.7374 25.5596 56.7374 26.25C56.7374 26.9404 56.1778 27.5 55.4874 27.5ZM38.4749 32.5C38.8954 33.2732 39.1548 34.1237 39.2374 35H52.9874C53.0584 34.1264 53.305 33.2761 53.7124 32.5H38.4749ZM24.2374 22.5C23.5471 22.5 22.9874 23.0596 22.9874 23.75V25H25.4874C26.1778 25 26.7374 24.4404 26.7374 23.75V22.5H24.2374ZM21.7374 32.5C21.4118 32.4947 21.099 32.6262 20.8749 32.8625C20.6318 33.0943 20.4921 33.4141 20.4874 33.75C20.4874 34.4404 21.0471 35 21.7374 35H25.4874C25.5584 34.1264 25.805 33.2761 26.2124 32.5H21.7374ZM32.3624 31.25C30.5929 31.25 28.9976 32.3159 28.3205 33.9508C27.6433 35.5856 28.0176 37.4674 29.2688 38.7186C30.5201 39.9698 32.4018 40.3441 34.0367 39.667C35.6715 38.9898 36.7374 37.3945 36.7374 35.625C36.7374 33.2088 34.7787 31.25 32.3624 31.25ZM59.8624 31.25C57.4462 31.25 55.4874 33.2088 55.4874 35.625C55.4874 38.0412 57.4462 40 59.8624 40C62.2787 40 64.2374 38.0412 64.2374 35.625C64.2374 33.2088 62.2787 31.25 59.8624 31.25ZM69.2374 32.5H65.9749C66.3954 33.2732 66.6548 34.1237 66.7374 35H69.2374C69.563 35.0053 69.8759 34.8738 70.0999 34.6375C70.3431 34.4058 70.4828 34.0859 70.4874 33.75C70.4874 33.0596 69.9278 32.5 69.2374 32.5Z" fill="white"/>
<path d="M63.1249 24.3125L58.8124 15.6875C58.5986 15.2631 58.1626 14.9967 57.6874 15H38.2874C37.8122 14.9967 37.3763 15.2631 37.1624 15.6875L32.8499 24.3125L30.6249 23.1875L34.9249 14.575C35.5609 13.3011 36.8636 12.4972 38.2874 12.5H57.6874C59.1113 12.4972 60.4139 13.3011 61.0499 14.575L65.3499 23.1875L63.1249 24.3125Z" fill="white"/>
<path d="M46.7374 13.75H49.2374V23.75H46.7374V13.75Z" fill="white"/>
<path d="M7.98743 70H1.73743C1.04707 70 0.487427 69.4404 0.487427 68.75V42.5C0.487427 41.8096 1.04707 41.25 1.73743 41.25H7.98743C8.67778 41.25 9.23743 41.8096 9.23743 42.5V68.75C9.23743 69.4404 8.67778 70 7.98743 70ZM70.4874 51.95C70.372 52.5556 70.0037 53.0831 69.4749 53.4L46.0124 67.6625C44.8367 68.3757 43.4875 68.7519 42.1124 68.75L11.7374 68.75V43.75H13.9874C16.2948 43.7521 18.5334 44.5364 20.3374 45.975C22.5804 47.7682 25.3658 48.7466 28.2374 48.75H34.7749C36.5307 48.7495 38.1582 49.6699 39.0624 51.175L39.1749 51.3625C39.8581 52.5003 39.7839 53.9385 38.9874 55H31.3999C28.9308 54.9994 26.5168 55.7302 24.4624 57.1L23.5499 57.7125C23.0473 58.1174 22.9355 58.8384 23.2921 59.3764C23.6486 59.9145 24.3561 60.0926 24.9249 59.7875L25.8499 59.175C27.494 58.0809 29.4251 57.4981 31.3999 57.5H42.4999C43.1714 57.4985 43.8383 57.3887 44.4749 57.175L67.6249 49.4625C68.5158 49.1714 69.493 49.4837 70.0499 50.2375C70.436 50.7185 70.5955 51.3428 70.4874 51.95Z" fill="white"/>
<path d="M16.7374 0H6.73743C5.35671 0 4.23743 1.11929 4.23743 2.5V6.25C4.23743 8.21723 5.16364 10.0697 6.73743 11.25V27.9125C6.73743 28.4534 6.91287 28.9798 7.23743 29.4125L9.73743 32.75C10.2096 33.3795 10.9505 33.75 11.7374 33.75C12.5243 33.75 13.2653 33.3795 13.7374 32.75L16.2374 29.4125C16.562 28.9798 16.7374 28.4534 16.7374 27.9125V25.2625C16.737 24.7654 16.5392 24.2888 16.1874 23.9375L14.7499 22.5L15.9249 21.325C16.2791 20.9751 16.4785 20.4979 16.4785 20C16.4785 19.5021 16.2791 19.0249 15.9249 18.675L14.7499 17.5L16.1874 16.0625C16.5392 15.7112 16.737 15.2346 16.7374 14.7375V11.25C18.3112 10.0697 19.2374 8.21723 19.2374 6.25V2.5C19.2374 1.11929 18.1181 0 16.7374 0ZM10.4874 3.75H12.9874C13.6778 3.75 14.2374 4.30964 14.2374 5C14.2374 5.69036 13.6778 6.25 12.9874 6.25H10.4874C9.79707 6.25 9.23743 5.69036 9.23743 5C9.23743 4.30964 9.79707 3.75 10.4874 3.75ZM14.2374 14.4875L12.5499 16.175C12.1957 16.5249 11.9964 17.0021 11.9964 17.5C11.9964 17.9979 12.1957 18.4751 12.5499 18.825L13.7249 20L12.5499 21.175C12.1957 21.5249 11.9964 22.0021 11.9964 22.5C11.9964 22.9979 12.1957 23.4751 12.5499 23.825L14.2374 25.5125V27.9125L11.7374 31.25L9.23743 27.9125V12.375C9.64938 12.4549 10.0678 12.4968 10.4874 12.5H12.9874C13.407 12.4968 13.8255 12.4549 14.2374 12.375V14.4875Z" fill="white"/>
</g>
<defs>
<clipPath id="clip0_116_34">
<rect width="70" height="70" fill="white" transform="translate(0.487427)"/>
</clipPath>
</defs>
</svg>
