<svg width="41" height="41" viewBox="0 0 41 41" fill="none" xmlns="http://www.w3.org/2000/svg">
<g clip-path="url(#clip0_61_2428)">
<path d="M20.5319 40.1249C15.3079 40.1249 10.3959 38.0903 6.70167 34.396C3.00744 30.7018 0.972778 25.7898 0.972778 20.5658C0.972778 15.3418 3.00744 10.4298 6.70167 6.7356C10.3959 3.04138 15.3079 1.00671 20.5319 1.00671C25.7559 1.00671 30.6679 3.04138 34.3621 6.7356C38.0563 10.4298 40.091 15.3418 40.091 20.5658C40.091 25.7898 38.0563 30.7018 34.3621 34.396C30.6679 38.0903 25.7568 40.1249 20.5319 40.1249ZM20.5319 1.8956C10.2368 1.8956 1.86167 10.2707 1.86167 20.5658C1.86167 30.8609 10.2368 39.236 20.5319 39.236C30.827 39.236 39.2021 30.8609 39.2021 20.5658C39.2021 10.2707 30.827 1.8956 20.5319 1.8956Z" fill="white"/>
<path d="M32.9755 28.1951C32.8999 28.1951 32.8235 28.1756 32.7532 28.1356C32.5408 28.0129 32.4679 27.7409 32.5906 27.5285C33.811 25.4147 34.4564 23.0067 34.4564 20.5658C34.4564 12.8876 28.2092 6.64048 20.531 6.64048C12.8528 6.64048 6.60569 12.8876 6.60569 20.5658C6.60569 23.0067 7.25102 25.4147 8.47146 27.5285C8.59413 27.7409 8.52124 28.0129 8.3088 28.1356C8.09635 28.2583 7.82435 28.1854 7.70169 27.9729C6.40302 25.724 5.7168 23.1623 5.7168 20.5658C5.7168 12.3969 12.3621 5.75159 20.531 5.75159C28.6999 5.75159 35.3452 12.3969 35.3452 20.5658C35.3452 23.1623 34.659 25.724 33.3603 27.9729C33.2786 28.1151 33.1292 28.1951 32.9755 28.1951Z" fill="white"/>
<path d="M20.5318 9.44492C20.2865 9.44492 20.0874 9.24581 20.0874 9.00048V6.19603C20.0874 5.9507 20.2865 5.75159 20.5318 5.75159C20.7772 5.75159 20.9763 5.9507 20.9763 6.19603V9.00048C20.9763 9.2467 20.7772 9.44492 20.5318 9.44492Z" fill="white"/>
<path d="M14.7497 10.9952C14.5959 10.9952 14.4466 10.9152 14.3648 10.773L12.9622 8.34453C12.8395 8.13209 12.9124 7.86009 13.1248 7.73742C13.3373 7.61475 13.6093 7.68764 13.7319 7.90009L15.1346 10.3285C15.2573 10.541 15.1844 10.813 14.9719 10.9356C14.9017 10.9756 14.8253 10.9952 14.7497 10.9952Z" fill="white"/>
<path d="M10.5158 15.2281C10.4403 15.2281 10.3638 15.2085 10.2936 15.1685L7.86518 13.7659C7.65273 13.6432 7.57984 13.3712 7.70251 13.1588C7.82518 12.9463 8.09718 12.8734 8.30962 12.9961L10.7381 14.3988C10.9505 14.5214 11.0234 14.7934 10.9007 15.0059C10.819 15.1481 10.6696 15.2281 10.5158 15.2281Z" fill="white"/>
<path d="M8.96654 21.0102H6.1621C5.91676 21.0102 5.71765 20.8111 5.71765 20.5658C5.71765 20.3204 5.91676 20.1213 6.1621 20.1213H8.96654C9.21187 20.1213 9.41098 20.3204 9.41098 20.5658C9.41098 20.8111 9.21276 21.0102 8.96654 21.0102Z" fill="white"/>
<path d="M8.08837 28.1951C7.9346 28.1951 7.78526 28.1151 7.70349 27.9729C7.58082 27.7605 7.65371 27.4885 7.86615 27.3658L10.2946 25.9631C10.507 25.8405 10.779 25.9134 10.9017 26.1258C11.0244 26.3382 10.9515 26.6102 10.739 26.7329L8.3106 28.1356C8.23949 28.1756 8.16304 28.1951 8.08837 28.1951Z" fill="white"/>
<path d="M32.9755 28.1951C32.8999 28.1951 32.8235 28.1756 32.7532 28.1356L30.3239 26.7329C30.1115 26.6102 30.0386 26.3382 30.1612 26.1258C30.2839 25.9134 30.5559 25.8405 30.7684 25.9631L33.1977 27.3658C33.4101 27.4885 33.483 27.7605 33.3604 27.9729C33.2786 28.1151 33.1292 28.1951 32.9755 28.1951Z" fill="white"/>
<path d="M34.9017 21.0102H32.0973C31.8519 21.0102 31.6528 20.8111 31.6528 20.5658C31.6528 20.3204 31.8519 20.1213 32.0973 20.1213H34.9017C35.1471 20.1213 35.3462 20.3204 35.3462 20.5658C35.3462 20.8111 35.1471 21.0102 34.9017 21.0102Z" fill="white"/>
<path d="M30.5478 15.2281C30.3941 15.2281 30.2447 15.1481 30.163 15.0059C30.0403 14.7934 30.1132 14.5214 30.3256 14.3988L32.755 12.9961C32.9674 12.8734 33.2394 12.9463 33.3621 13.1588C33.4847 13.3712 33.4118 13.6432 33.1994 13.7659L30.7701 15.1685C30.6998 15.2085 30.6234 15.2281 30.5478 15.2281Z" fill="white"/>
<path d="M26.3141 10.9952C26.2385 10.9952 26.1621 10.9756 26.0919 10.9356C25.8794 10.813 25.8065 10.541 25.9292 10.3285L27.3319 7.90009C27.4545 7.68764 27.7265 7.61475 27.939 7.73742C28.1514 7.86009 28.2243 8.13209 28.1016 8.34453L26.699 10.773C26.6172 10.9152 26.4679 10.9952 26.3141 10.9952Z" fill="white"/>
<path d="M20.5319 23.3685C18.9861 23.3685 17.7292 22.1107 17.7292 20.5659C17.7292 19.021 18.987 17.7632 20.5319 17.7632C22.0768 17.7632 23.3346 19.021 23.3346 20.5659C23.3346 22.1107 22.0777 23.3685 20.5319 23.3685ZM20.5319 18.6521C19.4768 18.6521 18.6181 19.5107 18.6181 20.5659C18.6181 21.621 19.4768 22.4796 20.5319 22.4796C21.587 22.4796 22.4457 21.621 22.4457 20.5659C22.4457 19.5107 21.587 18.6521 20.5319 18.6521Z" fill="white"/>
<path d="M22.1994 19.3427C22.0857 19.3427 21.9719 19.2991 21.8848 19.2129C21.7114 19.0396 21.7114 18.7578 21.8848 18.5844L26.7897 13.6796C26.963 13.5062 27.2448 13.5062 27.4181 13.6796C27.5914 13.8529 27.5914 14.1347 27.4181 14.308L22.5132 19.2129C22.427 19.2991 22.3132 19.3427 22.1994 19.3427Z" fill="white"/>
<path d="M14.9923 32.1045H12.2225C11.9772 32.1045 11.7781 31.9054 11.7781 31.6601V28.7818C11.7781 28.5365 11.9772 28.3374 12.2225 28.3374H14.9923C15.2376 28.3374 15.4367 28.5365 15.4367 28.7818V31.6601C15.4367 31.9054 15.2376 32.1045 14.9923 32.1045ZM12.667 31.2156H14.5479V29.2263H12.667V31.2156Z" fill="white"/>
<path d="M17.7621 34.9827H14.9923C14.747 34.9827 14.5479 34.7836 14.5479 34.5382V31.66C14.5479 31.4147 14.747 31.2156 14.9923 31.2156H17.7621C18.0074 31.2156 18.2065 31.4147 18.2065 31.66V34.5382C18.2065 34.7845 18.0074 34.9827 17.7621 34.9827ZM15.4367 34.0938H17.3176V32.1045H15.4367V34.0938Z" fill="white"/>
<path d="M20.5318 32.1045H17.7621C17.5167 32.1045 17.3176 31.9054 17.3176 31.6601V28.7818C17.3176 28.5365 17.5167 28.3374 17.7621 28.3374H20.5318C20.7772 28.3374 20.9763 28.5365 20.9763 28.7818V31.6601C20.9763 31.9054 20.7772 32.1045 20.5318 32.1045ZM18.2065 31.2156H20.0874V29.2263H18.2065V31.2156Z" fill="white"/>
<path d="M23.3016 34.9827H20.5318C20.2865 34.9827 20.0874 34.7836 20.0874 34.5382V31.66C20.0874 31.4147 20.2865 31.2156 20.5318 31.2156H23.3016C23.547 31.2156 23.7461 31.4147 23.7461 31.66V34.5382C23.7461 34.7845 23.547 34.9827 23.3016 34.9827ZM20.9763 34.0938H22.8572V32.1045H20.9763V34.0938Z" fill="white"/>
<path d="M26.0714 32.1045H23.3016C23.0563 32.1045 22.8572 31.9054 22.8572 31.6601V28.7818C22.8572 28.5365 23.0563 28.3374 23.3016 28.3374H26.0714C26.3167 28.3374 26.5158 28.5365 26.5158 28.7818V31.6601C26.5158 31.9054 26.3167 32.1045 26.0714 32.1045ZM23.7461 31.2156H25.627V29.2263H23.7461V31.2156Z" fill="white"/>
<path d="M28.8412 34.9827H26.0714C25.8261 34.9827 25.627 34.7836 25.627 34.5382V31.66C25.627 31.4147 25.8261 31.2156 26.0714 31.2156H28.8412C29.0865 31.2156 29.2856 31.4147 29.2856 31.66V34.5382C29.2856 34.7845 29.0865 34.9827 28.8412 34.9827ZM26.5158 34.0938H28.3967V32.1045H26.5158V34.0938Z" fill="white"/>
<path d="M25.523 32.1045H15.5408C15.2954 32.1045 15.0963 31.9054 15.0963 31.66C15.0963 31.4147 15.2954 31.2156 15.5408 31.2156H25.5221C25.7674 31.2156 25.9665 31.4147 25.9665 31.66C25.9665 31.9054 25.7683 32.1045 25.523 32.1045Z" fill="white"/>
</g>
<defs>
<clipPath id="clip0_61_2428">
<rect width="40" height="40" fill="white" transform="translate(0.508789 0.5)"/>
</clipPath>
</defs>
</svg>
