<svg width="67" height="67" viewBox="0 0 67 67" fill="none" xmlns="http://www.w3.org/2000/svg">
<path d="M55.0054 61.5056V64.3697C55.0054 64.5534 55.0417 64.7352 55.1122 64.9048C55.1827 65.0744 55.286 65.2284 55.4162 65.358C55.5464 65.4876 55.7009 65.5901 55.8708 65.6598C56.0408 65.7294 56.2228 65.7648 56.4065 65.7639H61.769C62.1388 65.7639 62.4934 65.617 62.7549 65.3556C63.0164 65.0941 63.1632 64.7395 63.1632 64.3697V58.8491C62.2781 59.7384 61.2176 60.4339 60.0492 60.8912C58.8807 61.3485 57.6299 61.5578 56.3762 61.5056H55.0054Z" fill="white"/>
<path d="M3.10046 58.7679V64.3697C3.10046 64.7395 3.24736 65.0941 3.50883 65.3556C3.7703 65.6171 4.12494 65.7639 4.49471 65.7639H9.85721C10.227 65.7639 10.5816 65.6171 10.8431 65.3556C11.1046 65.0941 11.2515 64.7395 11.2515 64.3697V61.5056H9.96584C8.693 61.5605 7.42299 61.3449 6.23958 60.873C5.05617 60.4011 3.98628 59.6836 3.10046 58.7679Z" fill="white"/>
<path d="M3.14026 53.1827C3.14026 57.1344 5.89026 59.4376 9.96576 59.4376H56.3734C60.4434 59.4376 63.1989 57.1344 63.1989 53.1827V52.0414H3.14026V53.1827Z" fill="white"/>
<path d="M63.8314 27.7451L60.3939 27.1484C60.1193 27.1005 59.8366 27.1466 59.5916 27.2794C59.3465 27.4121 59.1535 27.6237 59.0436 27.8799L57.9739 30.2985L57.5394 29.6358L54.5254 22.5201C54.0393 21.3658 53.2673 20.3542 52.2823 19.5806C51.2972 18.807 50.1314 18.2968 48.8948 18.0981C43.6905 17.308 38.4327 16.9241 33.1689 16.95C27.9054 16.9254 22.648 17.3107 17.4444 18.1023C16.2065 18.3 15.0394 18.8097 14.0531 19.5833C13.0668 20.357 12.2937 21.3691 11.8069 22.5243L8.79976 29.6289L8.37214 30.282L7.29551 27.873C7.18571 27.6169 6.99264 27.4053 6.74758 27.2725C6.50252 27.1397 6.21982 27.0936 5.94526 27.1415L2.50639 27.7451C2.18871 27.7965 1.89974 27.9594 1.69133 28.2046C1.48293 28.4498 1.36874 28.7612 1.36926 29.083V29.7581C1.36933 30.068 1.47531 30.3685 1.66963 30.6098C1.86396 30.8512 2.13494 31.0188 2.43764 31.085L7.14564 32.1616L4.89064 35.5991C3.74942 37.3396 3.14152 39.3754 3.14164 41.4566V49.9816H63.1989V41.4566C63.1985 39.3753 62.5901 37.3394 61.4485 35.5991L59.1853 32.1451L63.9015 31.0823C64.2042 31.0161 64.4752 30.8484 64.6695 30.6071C64.8638 30.3658 64.9698 30.0652 64.9699 29.7554V29.0803C64.9697 28.7587 64.855 28.4478 64.6464 28.2031C64.4378 27.9585 64.1488 27.7961 63.8314 27.7451ZM13.7113 23.33C14.0587 22.4958 14.614 21.7644 15.3243 21.2057C16.0347 20.6471 16.8763 20.2797 17.7689 20.1386C22.8653 19.3651 28.0141 18.9886 33.1689 19.0125C38.3236 18.9886 43.4725 19.3651 48.5689 20.1386C49.4608 20.2801 50.3017 20.6475 51.0115 21.2059C51.7213 21.7643 52.2763 22.4951 52.6238 23.3286L54.9406 28.7929H11.3944L13.7113 23.33ZM9.33739 43.2675C8.93318 43.2086 8.55599 43.0296 8.25468 42.7538C7.95338 42.478 7.74185 42.1181 7.64751 41.7206C7.52322 41.2571 7.47446 40.7766 7.50314 40.2975C7.61451 39.06 8.00364 38.4509 8.79014 38.4509C8.79014 38.4509 14.1829 38.7864 14.9116 39.0105C15.6404 39.2346 18.4371 44.5518 18.4371 44.5518L9.33739 43.2675ZM43.8829 45.33L33.1029 45.946L22.4549 45.3451L19.7393 39.5853C19.7393 39.5853 29.3051 40.4185 33.1675 40.4185C37.0299 40.4185 46.5985 39.5853 46.5985 39.5853L43.8829 45.33ZM58.6889 41.7261C58.5946 42.1236 58.383 42.4835 58.0817 42.7593C57.7804 43.0351 57.4032 43.2141 56.999 43.273L47.8993 44.5573C47.8993 44.5573 50.6974 39.2401 51.4261 39.016C52.1549 38.7919 57.5463 38.4564 57.5463 38.4564C58.3341 38.4564 58.7219 39.071 58.8333 40.303C58.8619 40.7821 58.8132 41.2626 58.6889 41.7261Z" fill="white"/>
</svg>
