<svg width="80" height="78" viewBox="0 0 80 78" fill="none" xmlns="http://www.w3.org/2000/svg">
<path fill-rule="evenodd" clip-rule="evenodd" d="M43.6098 70.2692H6.75982C6.56549 70.2692 6.37849 70.1922 6.24282 70.0565C6.10349 69.9172 6.02649 69.7302 6.02649 69.5358V64.2192C6.02649 61.1758 8.20082 58.4918 11.5522 56.2075C17.5362 52.1265 27.2198 49.5525 38.1098 49.5525C39.6278 49.5525 40.8598 48.3205 40.8598 46.8025C40.8598 45.2845 39.6278 44.0525 38.1098 44.0525C25.9292 44.0525 15.1455 47.0995 8.45016 51.6645C3.34249 55.1478 0.526489 59.5735 0.526489 64.2192V69.5358C0.526489 71.1895 1.18282 72.7772 2.35249 73.9432C3.52216 75.1128 5.10616 75.7692 6.75982 75.7692H43.6098C45.1278 75.7692 46.3598 74.5372 46.3598 73.0192C46.3598 71.5012 45.1278 70.2692 43.6098 70.2692Z" fill="white"/>
<path fill-rule="evenodd" clip-rule="evenodd" d="M38.1098 0.558594C26.9778 0.558594 17.9432 9.59326 17.9432 20.7253C17.9432 31.8536 26.9778 40.8919 38.1098 40.8919C49.2418 40.8919 58.2765 31.8536 58.2765 20.7253C58.2765 9.59326 49.2418 0.558594 38.1098 0.558594ZM38.1098 6.05859C46.2058 6.05859 52.7765 12.6293 52.7765 20.7253C52.7765 28.8176 46.2058 35.3919 38.1098 35.3919C30.0138 35.3919 23.4432 28.8176 23.4432 20.7253C23.4432 12.6293 30.0138 6.05859 38.1098 6.05859Z" fill="white"/>
<path fill-rule="evenodd" clip-rule="evenodd" d="M58.1665 76.7996C58.6799 77.3129 59.3802 77.6026 60.1099 77.6026C60.8395 77.6026 61.5399 77.3129 62.0532 76.7996L75.7262 63.1266C80.5699 58.2829 80.5699 50.4143 75.7262 45.5669C71.4839 41.3283 64.9279 40.7966 60.1099 43.9793C55.2919 40.7966 48.7359 41.3283 44.4935 45.5669C39.6682 50.3959 39.6499 58.2206 44.4385 63.0716L58.1665 76.7996ZM60.1099 70.9659L48.3472 59.2033C45.6852 56.5009 45.6962 52.1449 48.3839 49.4573C51.0825 46.7586 55.4679 46.7586 58.1665 49.4573C59.2409 50.5316 60.9789 50.5316 62.0532 49.4573C64.7555 46.7586 69.1372 46.7586 71.8359 49.4573C74.5345 52.1559 74.5345 56.5376 71.8359 59.2399L60.1099 70.9659Z" fill="#D40000"/>
</svg>
