<svg width="48" height="78" viewBox="0 0 48 78" fill="none" xmlns="http://www.w3.org/2000/svg">
<path d="M47.0257 20.258H0.416504V63.7833L24.2057 77.5282L47.0257 63.7833V20.258Z" fill="#FF0000"/>
<path d="M40.1973 24.4981H7.24487V34.3662L11.6503 38.7716H19.4919L13.1481 31.1943H33.9416V35.864H40.1973V24.4981Z" fill="white"/>
<path d="M7.24487 46.2745L11.6503 41.8691H33.9416V48.5653H13.1481V59.0502L23.8092 65.3059L33.9416 59.0502V54.9091H30.2411V52.9707H40.1973V63.5437L24.0116 73.1897L7.24487 63.5437V46.2745Z" fill="white"/>
<path d="M29.6783 9.27405L30.6012 10.3639L31.735 9.4967L39.2125 3.77795L36.2653 16.1051H11.3561L8.27991 3.80139L15.775 9.49963L16.8981 10.3531L17.819 9.28381L23.8063 2.33362L29.6783 9.27405Z" fill="white" stroke="#FF0000" stroke-width="3"/>
</svg>
